<?xml version="1.0" encoding="utf-8"?>
<!-- Generator: Adobe Illustrator 27.0.0, SVG Export Plug-In . SVG Version: 6.00 Build 0)  -->
<svg version="1.1" id="Layer_1" xmlns="http://www.w3.org/2000/svg" xmlns:xlink="http://www.w3.org/1999/xlink" x="0px" y="0px"
	 viewBox="0 0 47.53 61.06" style="enable-background:new 0 0 47.53 61.06;" xml:space="preserve">
<style type="text/css">
	.st0{fill:#F1F7EE;}
	.st1{fill:#030304;stroke:#030304;stroke-width:0.2217;stroke-miterlimit:10;}
	.st2{fill:none;stroke:#FFFFFF;stroke-width:0.2217;stroke-miterlimit:10;}
	.st3{fill:none;stroke:#FFFFFF;stroke-width:0.2217;stroke-miterlimit:10;stroke-dasharray:2.4773,0.6193;}
	.st4{fill:#030304;stroke:#030304;stroke-width:0.0901;stroke-miterlimit:10;}
	.st5{fill:#416D90;stroke:#416D90;stroke-width:0.2704;stroke-miterlimit:10;}
	.st6{fill:#841813;stroke:#841813;stroke-width:0.0916;stroke-miterlimit:10;}
	.st7{fill:#030304;stroke:#030304;stroke-width:0.0941;stroke-miterlimit:10;}
	.st8{fill:#030304;stroke:#030304;stroke-width:0.0916;stroke-miterlimit:10;}
	.st9{fill:none;stroke:#030304;stroke-width:0.2054;stroke-miterlimit:10;}
	.st10{fill:#841813;}
	.st11{fill:#416D90;}
	.st12{fill:none;}
	.st13{fill:#FFFFFF;}
	.st14{fill:none;stroke:#416D90;stroke-width:0.0901;stroke-miterlimit:10;}
	.st15{fill:#FFFFFF;stroke:#030304;stroke-width:0.0901;stroke-miterlimit:10;}
	.st16{fill:none;stroke:#841813;stroke-width:0.0901;stroke-miterlimit:10;}
	.st17{fill:#030304;}
	.st18{fill:#FFFFFF;stroke:#FFFFFF;stroke-width:0.134;stroke-miterlimit:10;}
	.st19{fill:#F2F7ED;}
</style>
<rect x="0.17" y="0.13" class="st0" width="47.35" height="60.93"/>
<g>
	<g>
		<g>
			<path class="st1" d="M11.58,43.96v11.42h4.72V43.76c0,0-0.63-13.6-0.28-15.62l-0.83-0.48l-0.95-8.01l-0.91,7.89l-1.15,0.55
				C12.18,28.1,12.41,43.62,11.58,43.96z"/>
			<g>
				<line class="st2" x1="11.98" y1="54.86" x2="15.75" y2="54.86"/>
				<line class="st2" x1="11.98" y1="54.13" x2="15.75" y2="54.13"/>
				<line class="st2" x1="11.98" y1="53.54" x2="15.87" y2="53.54"/>
				<line class="st2" x1="11.98" y1="52.89" x2="15.75" y2="52.89"/>
				<line class="st2" x1="11.98" y1="52.28" x2="15.87" y2="52.28"/>
				<line class="st2" x1="11.98" y1="51.56" x2="15.75" y2="51.56"/>
				<line class="st2" x1="11.98" y1="50.88" x2="15.87" y2="50.88"/>
				<line class="st2" x1="11.98" y1="50.21" x2="15.87" y2="50.21"/>
				<line class="st2" x1="11.98" y1="49.62" x2="15.87" y2="49.62"/>
				<line class="st2" x1="11.98" y1="48.97" x2="15.87" y2="48.97"/>
				<line class="st2" x1="11.98" y1="48.34" x2="15.87" y2="48.27"/>
				<line class="st2" x1="11.98" y1="47.71" x2="15.87" y2="47.71"/>
				<line class="st2" x1="11.98" y1="47.04" x2="15.97" y2="47.04"/>
				<line class="st2" x1="11.98" y1="46.34" x2="15.87" y2="46.34"/>
				<line class="st2" x1="11.98" y1="45.67" x2="15.87" y2="45.67"/>
				<line class="st2" x1="11.98" y1="45.05" x2="15.87" y2="45.05"/>
				<line class="st2" x1="12.21" y1="44.41" x2="15.87" y2="44.41"/>
				<line class="st2" x1="12.21" y1="43.77" x2="15.87" y2="43.77"/>
				<line class="st2" x1="12.33" y1="43.11" x2="16.22" y2="43.11"/>
				<line class="st2" x1="12.33" y1="42.5" x2="16.22" y2="42.5"/>
				<line class="st2" x1="12.49" y1="41.83" x2="16.22" y2="41.83"/>
				<line class="st2" x1="12.55" y1="41.15" x2="16.1" y2="41.15"/>
				<line class="st2" x1="12.55" y1="40.48" x2="16.02" y2="40.48"/>
				<line class="st2" x1="12.71" y1="39.87" x2="15.9" y2="39.87"/>
				<line class="st2" x1="12.71" y1="39.23" x2="15.84" y2="39.23"/>
				<line class="st2" x1="12.81" y1="38.56" x2="15.73" y2="38.56"/>
				<line class="st2" x1="12.81" y1="37.96" x2="15.84" y2="37.96"/>
				<line class="st2" x1="12.92" y1="37.25" x2="15.73" y2="37.25"/>
				<line class="st2" x1="12.99" y1="36.62" x2="15.66" y2="36.62"/>
				<line class="st2" x1="13.09" y1="35.9" x2="15.58" y2="35.9"/>
				<line class="st2" x1="12.99" y1="35.22" x2="15.48" y2="35.22"/>
				<line class="st2" x1="13.09" y1="34.63" x2="15.48" y2="34.63"/>
				<line class="st2" x1="13.27" y1="34.03" x2="15.38" y2="34.03"/>
				<line class="st2" x1="13.27" y1="33.32" x2="15.38" y2="33.32"/>
				<line class="st2" x1="13.35" y1="32.73" x2="15.22" y2="32.73"/>
				<line class="st2" x1="13.45" y1="32.03" x2="15.22" y2="32.03"/>
				<line class="st2" x1="13.52" y1="31.36" x2="15.22" y2="31.36"/>
				<line class="st2" x1="13.52" y1="30.68" x2="15.11" y2="30.68"/>
				<line class="st2" x1="13.52" y1="30.05" x2="15.11" y2="30.05"/>
				<line class="st2" x1="13.66" y1="29.42" x2="15.01" y2="29.42"/>
				<line class="st2" x1="13.66" y1="28.78" x2="15.01" y2="28.78"/>
			</g>
		</g>
		<path class="st1" d="M8.06,28l-0.3-0.35v1.29H6.47v2.55H5.13v2.67H3.96v15.19H3.55V26.26H2.42v-0.32H1.77v-0.49H0.62v-1.42H0.35
			v-1.89L0.22,26.3l-0.58-0.01l-0.16-4.13v1.95H-0.8v1.38h-1.25v0.32H-2.6v0.45h-1.15l0.04,29.06l58.77,0.08
			c-0.24-1.58-1.49-1.94-1.49-1.94H49v-1.55l-1.34-1.73v-10.5c0-0.3-0.33-0.94-0.33-0.94h-2.4c-0.21,0.24-0.37,1.15-0.37,1.15v10.41
			l-1,1V31.49c-0.42-1.09-3.17-1.4-3.17-1.4v0.46c-3.32,0.27-3.19,1.34-3.19,1.34v20.94h-3.67V50h-0.77h-0.58V24.15h-0.94V22.9
			h-5.71v1.29h-0.99v23.19h-0.6v-7.69h-0.82v-5.5h-0.66v-1.17h-0.44V32.6h-0.2v-0.66h-1.67l-0.36-2.69L19.42,32h-1.57v0.68h-0.26
			v0.44h-0.24v1.24H16.6v5.36h-0.53v11.94h-4.33V34.05h-1.29v-2.67H9.12v-2.44H7.76"/>
		<g>
			<polygon class="st1" points="32.74,49.8 32.74,27.28 33.44,27.28 33.44,25.34 37.6,25.34 37.6,52.9 32.74,52.9 			"/>
			<g>
				<g>
					<g>
						<line class="st2" x1="34" y1="27.28" x2="34" y2="28.61"/>
						<line class="st3" x1="34" y1="29.23" x2="34" y2="50.59"/>
						<line class="st2" x1="34" y1="50.9" x2="34" y2="52.23"/>
					</g>
				</g>
				<g>
					<g>
						<line class="st2" x1="34.59" y1="27.28" x2="34.59" y2="28.61"/>
						<line class="st3" x1="34.59" y1="29.23" x2="34.59" y2="50.59"/>
						<line class="st2" x1="34.59" y1="50.9" x2="34.59" y2="52.23"/>
					</g>
				</g>
				<g>
					<g>
						<line class="st2" x1="35.31" y1="27.28" x2="35.31" y2="28.61"/>
						<line class="st3" x1="35.31" y1="29.23" x2="35.31" y2="50.59"/>
						<line class="st2" x1="35.31" y1="50.9" x2="35.31" y2="52.23"/>
					</g>
				</g>
				<g>
					<g>
						<line class="st2" x1="35.95" y1="27.28" x2="35.95" y2="28.61"/>
						<line class="st3" x1="35.95" y1="29.23" x2="35.95" y2="50.59"/>
						<line class="st2" x1="35.95" y1="50.9" x2="35.95" y2="52.23"/>
					</g>
				</g>
				<g>
					<g>
						<line class="st2" x1="36.54" y1="27.28" x2="36.54" y2="28.61"/>
						<line class="st3" x1="36.54" y1="29.23" x2="36.54" y2="50.59"/>
						<line class="st2" x1="36.54" y1="50.9" x2="36.54" y2="52.23"/>
					</g>
				</g>
			</g>
		</g>
	</g>
	<path class="st4" d="M45.73,11.66"/>
	<g>
		<path class="st5" d="M25.4,49.22l0.36-2.62c0,0-0.05-0.43,0.62-0.85c0.67-0.42,4.67-2.35,4.67-2.35s2.46,0.67,2.65,1.04
			c0.19,0.37,0.82-0.04,0.76,1.53l0.83,3.22l-5.05,0.79L25.4,49.22z"/>
		<g>
			<path class="st6" d="M24.91,52.07l1.44-1.59c0,0,6.88,1.38,8.81,0.8c0,0,2.74-1.06,2.95-2.16c0,0-5.2,0.38-5.36,0.23
				s-8.6-0.03-8.6-0.03s-3.38,0.26-3.39,1.13C20.75,51.31,22.92,52.09,24.91,52.07z"/>
			<g>
				<path class="st7" d="M25.52,52.65l-0.16-0.82c0,0-2.1,0.72-3.51-1.17c0,0,0.23-1.72,5.46-0.41s6.47,1.21,7.78,1.24
					c0,0-3.2,0.6-5.07-0.21l-3.87-0.82l0.33,0.18l-0.92,1.01L25.52,52.65z"/>
				<path class="st5" d="M25.64,55.24c0,0-1.88-2.51-0.51-2.89c0,0,1,0.99,1.04,1.47l0.3,0.12l-0.02-1.22c0,0,0.95-1.12,1.09-1.62
					c0,0,0.4-0.21,0.53-0.23c0.13-0.02,3.96,0.79,3.96,0.79l2.53-0.11l0.35,2.39L25.64,55.24z"/>
				<g>
					<path class="st6" d="M29.35,54.77c0,0,0.97-1.65,0.68-0.1L29.35,54.77z"/>
					<path class="st6" d="M31.44,54.39l-0.2-1.24c0,0,0.88-0.44,0.88,0.51c0,0,0.35-0.08,0.68,0.23c0.32,0.32,0.63,0.05,0.63,0.05
						l1.26-1.34c0,0,0.28,1.21,0.22,1.34C34.84,54.05,31.44,54.39,31.44,54.39z"/>
					<path class="st6" d="M28.07,53.02c0,0,0.77,0.62,1.46,0.2c0,0,0.5-0.12,0.53-0.05c0,0-0.53-0.52-0.92-0.5
						C28.73,52.68,28.19,52.84,28.07,53.02z"/>
					<path class="st6" d="M32.14,52.81c0,0,1-0.86,1.94-0.09c0,0-0.35,0.46-1.04,0.43C33.04,53.15,32.4,52.69,32.14,52.81z"/>
					<polygon class="st6" points="27.37,52.96 28.27,51.91 30.6,51.89 30.68,52.41 28.37,52.28 					"/>
					<polygon class="st6" points="31.84,51.89 31.87,52.42 33.64,52.03 34.42,52.36 33.57,51.69 					"/>
					<path class="st6" d="M25.16,52.44l-0.13-0.75l1.34-1.12l1.7,0.32l-0.55,0.28c0,0-0.95,1.5-1.03,1.51
						c-0.08,0.01-0.02,1.34-0.02,1.34l-0.3-0.12C26.16,53.9,25.49,52.47,25.16,52.44z"/>
					<path class="st6" d="M34.56,51.64l0.34,2.29c0,0,0.62-1.48,0.11-2.36L34.56,51.64z"/>
				</g>
			</g>
			<path class="st8" d="M26.27,49.3c0,0,4.47-2.28,7.2-2.03c0,0,1.31,0.07,1.54,0.35l0.47,1.64C35.49,49.26,26.91,49.5,26.27,49.3z"
				/>
		</g>
	</g>
	<g>
		<path class="st9" d="M34.82,45.2c-0.11,0.32,0.21-0.61,0.21-0.61c0.53-1.28,0.24-1.64,0.24-1.64c0.08-0.28-1.05-0.45-1.2-0.17
			c-0.16,0.28-1.35,0.13-1.35,0.13c0.04-0.73-1.08-0.49-1.08-0.49c0.01-0.98-1.3-1.47-1.3-1.47l-0.07-0.37
			c0.21-0.17,0.11-0.6,0.11-0.6c0.25-0.18,0.01-1.05,0.01-1.05c0.46-0.25,0.1-1.43,0.1-1.43c0.21-0.17,0.23-0.48,0.23-0.48
			c-0.07-1.25,0.35-1.39,0.35-1.39c0.13-0.03,0.31-1.64,0.31-1.64s0.39-0.3,0.66-0.71c0.27-0.42,0.38-1.88,0.38-1.88
			s0.58-0.77,0.55-0.92c-0.03-0.16,0.11-1.26,0.11-1.26s1.28-1.77,1.34-2.26c0.06-0.49,1.13-2.66,1.13-2.66
			c0.43-1.36,0.39-3.85,0.39-3.85c0.47-0.02-0.62-2.62-0.62-2.62c0.53-0.16-0.74-2.74-0.74-2.74c0.21-0.31-1.32-2.02-2.04-2
			c-0.72,0.02,0-0.66,0-0.66s0.29,0.04,0.39-0.08c0.1-0.12,0.47-1.17,0.47-1.38c0-0.21-0.41-1.79-0.41-1.79
			c0.35-0.33,0.12-0.99,0.14-1.65s-1.48-1.11-1.48-1.11c-1.83-0.8-2.95-0.97-2.95-0.97c-3.15-0.37-4.8,1.61-4.8,1.61
			s-0.59,2.35-0.86,2.64c-0.27,0.29-0.66,1.5-0.66,1.5c-0.27,0.21-0.82,1.44-0.82,1.44c-2,1.26-1.55,1.36-1.55,1.36
			c-2.42,0.46-3.54,3.29-3.54,3.29c-0.77,0.92-0.64,2.04-0.64,2.04c-0.79,0.94-0.48,2.37-0.48,2.37c-0.37,0.62-0.14,6.22-0.14,6.22
			c-0.35,5.06,0.31,5.31,0.31,5.31s-0.23,0.75,0.21,1.66c0.44,0.92,0,2.02,0,2.02s-0.44,1.75-1.37,4.04c-0.94,2.29,0.6,4.7,0.6,4.7
			c-0.06,0.04,0,0.9,0,0.9c-0.44,0.17-0.6,7.05-0.6,7.05c0.35,0.52,2.46,0.88,2.46,0.88c1.17,0.9,8.32,1.13,8.32,1.13l0.48-0.17
			c0.11-0.21,0.17-0.71,0.17-0.71l0.72-0.11c0,0-1.03-6.53-1.55-7.26c0,0,0.5-0.96,0.51-1.69l4.32-0.6c0,0,0.37,1.55,0.25,1.9
			c-0.13,0.35,0.54-0.27,0.42-1.87c0,0,0.48,0.62,0.66-0.39l1.03-0.05c0,0,0.32,0.53,1.04,0.31c0.72-0.21-0.12,1.21-0.12,1.21
			s1.36-1.05,0.36-2.2C33.41,43.99,35.42,43.47,34.82,45.2z"/>
		<path class="st9" d="M34.84,45.21l-0.01,0.04l-0.01,0.02c0,0,0,0.01,0,0.01c0.01-0.01-0.08-0.02-0.04-0.01v0v0l0.02-0.07
			l0.05-0.15c0.19-0.64,0.64-1.38,0.39-2.06l-0.01-0.02l0-0.01c0.02-0.09-0.11-0.15-0.21-0.18c-0.28-0.07-0.72-0.18-0.94,0.05
			c-0.33,0.3-0.96,0.16-1.38,0.14l-0.04,0v-0.04c0.03-0.54-0.65-0.52-1.03-0.45l-0.05,0.01v-0.05c0-0.71-0.69-1.18-1.28-1.42
			l-0.03-0.01l0-0.03c-0.01-0.03-0.08-0.38-0.08-0.39c0.16-0.12,0.15-0.37,0.12-0.57l-0.01-0.04c0.24-0.21,0.07-0.72,0.01-1.01
			l-0.02-0.05l0.05-0.03c0.36-0.31,0.14-0.99,0.03-1.4c0.14-0.08,0.23-0.31,0.23-0.44c0-0.5-0.08-1.19,0.42-1.5
			c-0.02,0-0.03,0.01-0.04,0.02c0.01-0.03,0.04-0.09,0.05-0.14c0.11-0.49,0.16-0.99,0.21-1.49c0.36-0.29,0.72-0.66,0.81-1.13
			c0.11-0.47,0.16-0.97,0.2-1.45c0.17-0.24,0.35-0.49,0.49-0.75c0.02-0.04,0.04-0.08,0.05-0.1c0-0.01,0-0.01,0,0c0,0,0,0.01,0,0.01
			c-0.02-0.45,0.06-0.88,0.09-1.31c0.41-0.69,0.95-1.35,1.27-2.1c0.25-0.97,0.8-2.06,1.18-2.86c0.34-1.21,0.36-2.53,0.37-3.79
			l0.19-0.2c-0.02,0-0.06,0.02-0.07,0.04c-0.01,0.02-0.01,0.01,0,0c0.02-0.36-0.13-0.74-0.23-1.09c-0.14-0.44-0.31-0.87-0.48-1.29
			l0.12-0.26c-0.04-0.77-0.5-1.71-0.85-2.47L34.41,15c-0.02,0.07,0-0.01-0.04-0.07c-0.37-0.67-1.1-1.5-1.84-1.66
			c-0.09,0-0.2,0-0.33-0.07c-0.4-0.25,0.06-0.74,0.27-0.94c0.09,0.03,0.35,0.02,0.34-0.03c0.18-0.37,0.36-0.87,0.44-1.25
			c0-0.09-0.04-0.28-0.07-0.41c-0.09-0.43-0.23-0.95-0.32-1.35l-0.02-0.08l0.06-0.05c0.17-0.15,0.17-0.46,0.15-0.75L33,7.88
			c-0.01-0.14,0-0.29-0.02-0.43c-0.2-0.48-0.91-0.74-1.39-0.91c-1.1-0.46-2.25-0.95-3.45-1.01c-1.5-0.11-3.23,0.58-4.17,1.57
			c-0.27,0.9-0.44,1.82-0.88,2.65c-0.33,0.44-0.46,1.03-0.67,1.53c-0.36,0.41-0.57,0.95-0.81,1.44c-0.54,0.37-1.17,0.69-1.57,1.22
			c-0.01,0.04,0,0.01-0.03,0l0,0.17c-0.81,0.16-1.53,0.61-2.1,1.2c-0.58,0.59-1.04,1.31-1.36,2.06c-0.46,0.55-0.68,1.31-0.62,2.02
			c-0.54,0.63-0.62,1.56-0.46,2.35c-0.11,0.2-0.12,0.49-0.15,0.76c-0.12,1.81-0.03,3.64,0.03,5.45c-0.07,1.34-0.15,2.68-0.02,4.01
			c0.05,0.38,0.08,0.79,0.27,1.12c0,0,0.04,0.03-0.02-0.01l0.12,0.23c-0.06,0.25-0.06,0.57-0.01,0.85c0.05,0.32,0.16,0.55,0.3,0.86
			c0.23,0.62,0.14,1.46-0.06,1.97c-0.38,1.48-0.93,2.94-1.47,4.35c-0.44,1.4-0.02,2.98,0.7,4.21l-0.07,0.31
			c0.03-0.02,0.06-0.05,0.07-0.08l0.01-0.02c0-0.01,0,0,0,0l0,0.04l0,0.1l0,0.21l0.02,0.44l-0.15,0.23c0.1-0.06,0.05-0.05,0.06-0.03
			c-0.46,2.24-0.39,4.59-0.51,6.88l-0.04-0.14c0.22,0.22,0.7,0.39,1.04,0.48c0.43,0.12,0.88,0.22,1.31,0.3l0.05,0.04
			c1.18,0.6,2.67,0.64,3.99,0.81c1.26,0.16,3.16,0.19,4.12,0.29l0.48-0.16l-0.12,0.1c0.1-0.23,0.14-0.54,0.17-0.8l0.16-0.02
			l0.72-0.1l-0.17,0.23c-0.28-1.83-0.58-3.67-0.97-5.48c-0.15-0.59-0.25-1.29-0.55-1.8c0.29-0.57,0.54-1.2,0.55-1.82l0.11-0.02
			l4.32-0.56l0.09-0.01c0.12,0.67,0.35,1.35,0.25,2.03l-0.01,0.05c0,0,0,0,0-0.02c-0.01-0.04-0.07-0.05-0.08-0.03
			c0.43-0.57,0.41-1.39,0.37-2.08l0.13,0.16c0.34,0.42,0.51-0.05,0.57-0.4h0.04l1.03-0.05h0.03l0.02,0.02
			c0.18,0.27,0.53,0.39,0.85,0.32c0.11-0.01,0.21-0.07,0.35-0.05c0.07,0.02,0.12,0.09,0.13,0.16c0.01,0.41-0.23,0.78-0.42,1.13
			l-0.06-0.05c0.66-0.5,1.01-1.49,0.36-2.15l-0.03-0.04l0.05-0.01C34.38,43.71,35.29,44.04,34.84,45.21L34.84,45.21z M34.8,45.2
			c0.44-1.13-0.44-1.42-1.38-1.18l0.02-0.05c0.14,0.16,0.25,0.35,0.32,0.55c0.23,0.73-0.3,1.41-0.85,1.84l0.11-0.19
			c0.16-0.29,0.32-0.6,0.39-0.92c0.02-0.1,0.02-0.23-0.07-0.25c-0.19-0.02-0.45,0.12-0.67,0.06c-0.24-0.04-0.46-0.17-0.6-0.37
			l0.05,0.02l-1.03,0.06l0.05-0.05c-0.05,0.43-0.35,0.92-0.76,0.41l0.11-0.04c0.03,0.68,0.05,1.49-0.43,2.03
			c-0.04,0.02-0.12,0.02-0.14-0.04c-0.03-0.1,0.03-0.16,0.02-0.26c0-0.58-0.16-1.17-0.28-1.73l0.11,0.07l-4.31,0.63l0.12-0.13
			c0,0.32-0.08,0.62-0.17,0.92c-0.09,0.29-0.21,0.57-0.34,0.85l-0.01-0.16c0.32,0.61,0.41,1.19,0.58,1.82
			c0.43,1.89,0.77,3.79,1.09,5.69c-0.21,0.04-0.72,0.11-0.93,0.15l0.18-0.18c-0.04,0.28-0.06,0.51-0.18,0.79l-0.04,0.07l-0.09,0.03
			l-0.48,0.17l-0.04,0.01c-1.43-0.05-2.85-0.14-4.27-0.27c-1.27-0.14-3.39-0.32-4.12-0.85c-0.9-0.21-1.92-0.28-2.61-0.97L14.1,53.7
			l0-0.08c0.03-1.19,0.07-2.37,0.14-3.56c0.1-1.17,0.07-2.37,0.42-3.5c0.03-0.05,0.02-0.11,0.19-0.2l-0.15,0.23
			c-0.01-0.29-0.05-0.67,0-0.95c0.01-0.05,0.05-0.12,0.11-0.15l-0.07,0.31c-0.79-1.38-1.21-3.04-0.73-4.59
			c0.56-1.44,1.11-2.86,1.5-4.35c0.19-0.53,0.26-1.17,0.07-1.71c-0.11-0.27-0.27-0.62-0.3-0.93c-0.05-0.34-0.06-0.67,0.03-1.03
			l0.12,0.23c-0.12-0.06-0.11-0.08-0.14-0.12c-0.24-0.39-0.27-0.87-0.32-1.31c-0.12-1.33-0.02-2.79,0.07-4.05
			c-0.05-1.57-0.08-3.13-0.02-4.69c0.05-0.54,0-1.08,0.22-1.6l-0.02,0.09c-0.08-0.43-0.08-0.86-0.01-1.29
			c0.07-0.43,0.24-0.85,0.52-1.19l-0.02,0.09c-0.08-0.73,0.26-1.66,0.66-2.09c0.69-1.53,1.91-3,3.62-3.34l0,0.17
			c-0.56-0.32,1.28-1.32,1.53-1.52l-0.03,0.04c0.21-0.47,0.56-1.19,0.83-1.43c0.19-0.53,0.35-1.08,0.69-1.54
			c0.09-0.13,0.16-0.31,0.22-0.48c0.25-0.7,0.42-1.44,0.63-2.15c1.1-1.18,2.73-1.75,4.31-1.7c1.24,0.05,2.41,0.54,3.54,1
			c0.53,0.21,1.28,0.4,1.54,1.06c0.04,0.16,0.01,0.32,0.03,0.48c0.01,0.48,0.19,1.04-0.19,1.43l0.04-0.14
			c0.14,0.59,0.37,1.26,0.43,1.85c-0.1,0.53-0.24,0.91-0.46,1.38c-0.1,0.22-0.38,0.23-0.58,0.21l0.14-0.04
			c-0.11,0.11-0.25,0.27-0.26,0.38c0-0.01-0.02-0.03-0.01-0.02c0.28,0.03,0.48,0.04,0.72,0.18c0.5,0.27,1.91,1.48,1.64,2.1
			l0.01-0.18c0.21,0.53,1.41,2.69,0.63,3.01l0.12-0.26c0.15,0.46,1.28,2.79,0.45,2.89l0.19-0.2c0,1.33-0.04,2.63-0.41,3.92
			c-0.39,0.81-0.83,1.66-1.11,2.51c-0.23,0.9-0.9,1.67-1.4,2.44l0.03-0.08c-0.05,0.4-0.11,0.81-0.12,1.2c0,0.04,0,0.11-0.01,0.13
			c-0.13,0.35-0.36,0.62-0.57,0.92l0.03-0.07c-0.05,0.49-0.11,0.97-0.23,1.45c-0.11,0.51-0.48,0.9-0.88,1.22l0.05-0.08
			c-0.07,0.49-0.13,0.98-0.24,1.46c-0.02,0.08-0.04,0.17-0.1,0.23c-0.08,0.04-0.16,0.11-0.22,0.25c-0.26,0.5,0.08,1.2-0.39,1.61
			l0.03-0.09c0.1,0.48,0.32,1.17-0.14,1.52l0.04-0.08c0.07,0.28,0.12,0.55,0.09,0.83c-0.02,0.09-0.04,0.21-0.14,0.28l0.02-0.07
			c0.04,0.23,0.05,0.49-0.14,0.66l0.02-0.05l0.07,0.37l-0.03-0.04c0.63,0.27,1.33,0.76,1.33,1.52l-0.05-0.04
			c0.42-0.09,1.17-0.06,1.13,0.53l-0.03-0.04c0.41,0.02,0.96,0.15,1.31-0.1c0.08-0.12,0.22-0.14,0.33-0.16
			c0.29-0.02,0.6,0.01,0.86,0.17c0.05,0.03,0.1,0.1,0.08,0.18l0-0.03c0.11,0.21,0.09,0.42,0.07,0.63c-0.08,0.6-0.37,1.14-0.55,1.71
			v0l0,0c0.04,0-0.05,0-0.04-0.02l0,0l0-0.01l0.01-0.02L34.8,45.2L34.8,45.2z"/>
	</g>
	<g>
		<polygon class="st10" points="22.23,33.44 28.39,25.16 22.45,33.6 		"/>
	</g>
	<g>
		<polygon class="st10" points="21.91,33.28 28.66,24.11 22.13,33.44 		"/>
	</g>
	<g>
		<path class="st10" d="M21.78,32.92c2.19-2.94,5.23-7.1,7.48-9.93c-2.16,2.87-5.11,7.14-7.21,10.12
			C22.05,33.12,21.78,32.92,21.78,32.92L21.78,32.92z"/>
	</g>
	<g>
		<polygon class="st10" points="21.57,32.64 28.32,23.48 21.79,32.8 		"/>
	</g>
	<g>
		<polygon class="st10" points="21.53,32.05 27.68,23.78 21.75,32.21 		"/>
	</g>
	<g>
		<polygon class="st10" points="21.57,31.45 26.44,24.79 21.79,31.61 		"/>
	</g>
	<g>
		<path class="st10" d="M21.53,30.93c1.41-2.02,3.44-5.02,4.91-6.95c-1.4,1.97-3.34,5.06-4.68,7.1L21.53,30.93L21.53,30.93z"/>
	</g>
	<g>
		<polygon class="st10" points="21.42,30.34 24.06,26.77 21.64,30.5 		"/>
	</g>
	<g>
		<polygon class="st10" points="21.37,29.83 25.44,23.97 21.59,29.98 		"/>
	</g>
	<g>
		<polygon class="st10" points="21.29,29.27 23.77,25.89 21.51,29.42 		"/>
	</g>
	<g>
		<path class="st10" d="M20.36,24.97c0.02-1.01,0.12-2.03,0.36-3.01l0.92-1.33c0,0-0.89,1.4-0.86,1.36
			c-0.2,0.98-0.25,1.99-0.24,2.98H20.36L20.36,24.97z"/>
	</g>
	<g>
		<path class="st10" d="M20.59,24.66c0.05-0.32,0.28-1.87,0.32-2.16c0.03-0.45,0.34-0.83,0.68-1.09c-0.22,0.19-0.41,0.42-0.53,0.68
			c-0.1,0.23-0.09,0.6-0.13,0.85l-0.17,1.73L20.59,24.66L20.59,24.66z"/>
	</g>
	<g>
		<path class="st10" d="M20.81,24.27c0-0.01,0.24-1.94,0.24-1.95c0,0,0.4-0.52,0.4-0.52l-0.36,0.55c0.01-0.06-0.1,1.95-0.1,1.94
			L20.81,24.27L20.81,24.27z"/>
	</g>
	<g>
		<path class="st10" d="M21.12,23.82c0,0,0.13-1.45,0.14-1.45l0.12-0.21l-0.1,0.22c0-0.03,0.02,1.45,0.02,1.45
			C21.3,23.83,21.12,23.82,21.12,23.82L21.12,23.82z"/>
	</g>
	<g>
		<polygon class="st10" points="21.36,23.49 21.48,22.36 21.54,23.49 		"/>
	</g>
	<g>
		<polygon class="st10" points="21.55,23.12 21.64,22.86 21.73,23.12 		"/>
	</g>
	<g>
		<path class="st10" d="M26.22,35.14c0.29,0.99,1.13-0.07,1.52-0.42c1.09-1.08,2.18-2.18,3.19-3.34c0.48-0.59,1.04-1.16,1.33-1.87
			c-0.27,0.73-0.81,1.31-1.28,1.92c-0.98,1.19-2.03,2.32-3.1,3.43c-0.25,0.25-0.55,0.62-0.86,0.81c-0.45,0.31-0.94,0.05-1.06-0.46
			C25.95,35.2,26.22,35.14,26.22,35.14L26.22,35.14z"/>
	</g>
	<g>
		<path class="st10" d="M26.21,34.8c0.3,0.65,0.74,0.44,1.08-0.02c1.62-1.66,3.21-3.36,4.64-5.19c0.46-0.62,0.94-1.24,1.22-1.97
			c-0.26,0.73-0.73,1.37-1.17,2c-1.39,1.87-2.94,3.61-4.52,5.32c-0.21,0.34-0.78,0.78-1.21,0.36c-0.12-0.11-0.21-0.23-0.28-0.38
			L26.21,34.8L26.21,34.8z"/>
	</g>
	<g>
		<path class="st10" d="M26.41,34.36c0.35,1,3.47-3.05,3.91-3.46c1.22-1.49,2.56-2.94,3.47-4.65c-1.36,2.57-3.38,4.74-5.25,6.96
			c-0.45,0.45-1.89,2.4-2.39,1.21C26.14,34.41,26.41,34.36,26.41,34.36L26.41,34.36z"/>
	</g>
	<g>
		<path class="st10" d="M26.76,33.82c-0.02,0.55,0.72-0.31,0.87-0.46c2.39-2.74,4.94-5.43,6.79-8.58c-1.5,2.75-3.64,5.11-5.6,7.55
			c-0.38,0.34-1.85,2.61-2.29,1.73c-0.03-0.09-0.05-0.16-0.05-0.25C26.48,33.82,26.76,33.82,26.76,33.82L26.76,33.82z"/>
	</g>
	<g>
		<path class="st10" d="M26.95,33.5c0,0.03,0.02,0.05,0,0.03c0.12-0.02,0.25-0.18,0.35-0.29c0.33-0.39,1.2-1.45,1.53-1.86
			c1.29-1.6,4.7-5.89,6.01-7.55c-1.81,2.37-5.04,6.63-6.84,8.94l-0.51,0.63c-0.16,0.17-0.3,0.41-0.6,0.39
			c-0.14-0.03-0.2-0.15-0.21-0.28C26.68,33.52,26.95,33.5,26.95,33.5L26.95,33.5z"/>
	</g>
	<g>
		<polygon class="st10" points="29.33,30.11 34.41,23.78 29.54,30.28 		"/>
	</g>
	<g>
		<polygon class="st10" points="30.79,27.74 34.45,23.23 31.01,27.91 		"/>
	</g>
	<g>
		<polygon class="st10" points="32.05,25.48 34.7,22.25 32.27,25.65 		"/>
	</g>
	<g>
		<path class="st10" d="M18.24,34.22l1.08,0.49l-0.11,0.05l0.38-1.1c-0.39-1.46-0.81-3.4-1.15-5.03c-0.29-1.49-0.62-2.98-0.68-4.49
			c-0.01-0.2,0.01-0.45,0.05-0.64c-0.13,0.86,0.07,1.73,0.2,2.58c0.45,2.56,1.08,5.08,1.73,7.6l0,0.02l-0.01,0.02l-0.37,1.11
			l-0.03,0.09l-0.08-0.04l-1.09-0.48C18.17,34.38,18.24,34.22,18.24,34.22L18.24,34.22z"/>
	</g>
	<g>
		<path class="st10" d="M18.06,33.86l1.04,0.48l-0.11,0.04l0.34-0.74l0,0.05c-0.73-2.94-1.58-5.88-1.92-8.9
			c0.37,3.03,1.34,5.97,2.06,8.91l-0.32,0.74l-0.03,0.07l-0.07-0.03l-1.04-0.46L18.06,33.86L18.06,33.86z"/>
	</g>
	<g>
		<path class="st10" d="M17.84,33.58l1.15,0.48l-0.11,0.05l0.22-0.62v0.05c-0.5-1.65-0.97-3.31-1.38-4.98
			c-0.4-1.67-0.82-3.36-0.93-5.08c0.35,3.43,1.46,6.74,2.45,10.02l0.01,0.02l-0.01,0.02c-0.01,0.03-0.24,0.69-0.24,0.7l-0.08-0.03
			l-1.15-0.46L17.84,33.58L17.84,33.58z"/>
	</g>
	<g>
		<path class="st10" d="M18.03,33.36l0.83,0.39l-0.11,0.05l0.11-0.38c-0.63-1.8-1.31-4.1-1.8-6.1c0.53,2.08,1.27,4.12,1.94,6.14
			c-0.02,0.07-0.11,0.41-0.12,0.47l-0.09-0.04l-0.84-0.37L18.03,33.36L18.03,33.36z"/>
	</g>
	<g>
		<path class="st10" d="M17.84,33l0.78,0.28l-0.1,0.1c-0.39-1.24-0.76-2.48-1.13-3.73c-0.3-1.1-0.81-2.65-1-3.76
			c0.21,1.1,0.75,2.65,1.07,3.74c0.41,1.29,0.83,2.57,1.26,3.86l-0.16-0.05l-0.78-0.26L17.84,33L17.84,33z"/>
	</g>
	<g>
		<path class="st10" d="M17.79,32.64l0.44,0.2l-0.11,0.1l-1.38-4.67l1.53,4.63l0.06,0.17c-0.11-0.04-0.49-0.2-0.61-0.25
			C17.72,32.81,17.79,32.64,17.79,32.64L17.79,32.64z"/>
	</g>
	<g>
		<polygon class="st10" points="17.67,32.44 17.16,30.33 17.84,32.39 		"/>
	</g>
	<g>
		<path class="st10" d="M15.44,33.13l0.71,0.57l-0.06,0.05c-0.51-1.27-0.99-2.56-1.17-3.92c0.21,1.4,0.74,2.74,1.29,4.03
			c-0.05-0.04-0.76-0.59-0.83-0.64C15.38,33.2,15.44,33.13,15.44,33.13L15.44,33.13z"/>
	</g>
	<g>
		<path class="st10" d="M15.3,32.94l0.5,0.28l-0.05,0.05c-0.16-0.41-0.31-0.83-0.46-1.26c-0.14-0.42-0.29-0.85-0.37-1.28
			c0.22,0.9,0.6,1.75,0.94,2.61c-0.05-0.02-0.54-0.28-0.6-0.32C15.26,33.02,15.3,32.94,15.3,32.94L15.3,32.94z"/>
	</g>
	<g>
		<path class="st10" d="M15.2,32.67l0.27,0.14l-0.05,0.05l-0.39-1.23l0.46,1.2c0.04,0.11,0.05,0.09-0.05,0.05l-0.28-0.12L15.2,32.67
			L15.2,32.67z"/>
	</g>
	<g>
		<polygon class="st10" points="15.14,32.32 15.24,32.56 15.06,32.37 		"/>
	</g>
	<g>
		<g>
			<path class="st10" d="M32.65,23.4c0.49-1.2,0.87-2.47,1.06-3.76c-0.05,1.33-0.29,2.63-0.65,3.91
				C33.06,23.55,32.65,23.4,32.65,23.4L32.65,23.4z"/>
		</g>
		<g>
			<path class="st10" d="M33.24,22.98c0.57-1.31,1.18-2.66,1.29-4.1c0.03,1.46-0.45,2.88-0.9,4.26L33.24,22.98L33.24,22.98z"/>
		</g>
		<g>
			<path class="st10" d="M34.04,22.11c0.28-0.53,0.61-1.04,0.76-1.62c0.02,0.3-0.07,0.61-0.13,0.9c-0.07,0.3-0.14,0.59-0.23,0.89
				L34.04,22.11L34.04,22.11z"/>
		</g>
		<g>
			<polygon class="st10" points="34.86,20.93 35.25,20 35.28,21.01 			"/>
		</g>
		<g>
			<path class="st10" d="M32.44,22.62c0.25-0.69,0.53-1.39,0.64-2.12c0.03,0.75-0.1,1.5-0.22,2.24L32.44,22.62L32.44,22.62z"/>
		</g>
		<g>
			<path class="st10" d="M32.12,21.87c0.23-0.39,0.41-0.83,0.53-1.27c0.01,0.23,0,0.47-0.02,0.71c-0.02,0.24-0.06,0.47-0.12,0.72
				L32.12,21.87L32.12,21.87z"/>
		</g>
		<g>
			<path class="st10" d="M31.79,20.92c0.16-0.19,0.35-0.39,0.42-0.63c0.07,0.27,0.01,0.55-0.03,0.82L31.79,20.92L31.79,20.92z"/>
		</g>
	</g>
	<g>
		<path class="st10" d="M24.55,23.39c0.77-1.34,1.61-2.63,2.6-3.82c-0.86,1.27-1.57,2.64-2.2,4.02
			C24.95,23.59,24.55,23.39,24.55,23.39L24.55,23.39z"/>
	</g>
	<g>
		<path class="st10" d="M25.32,23.36c0.46-0.97,1.11-1.8,1.83-2.57c-0.3,0.42-0.57,0.87-0.81,1.32c-0.23,0.44-0.46,0.92-0.59,1.39
			C25.75,23.51,25.32,23.36,25.32,23.36L25.32,23.36z"/>
	</g>
	<g>
		<path class="st10" d="M25.88,23.3c0.32-0.41,0.62-0.86,1.02-1.19c-0.09,0.1-0.14,0.21-0.19,0.33c-0.16,0.35-0.3,0.71-0.44,1.07
			C26.28,23.51,25.88,23.3,25.88,23.3L25.88,23.3z"/>
	</g>
	<g>
		<path class="st10" d="M26.73,23.22c0.64-0.31,1.03-1.03,1.39-1.63c-0.28,0.75-0.53,1.63-1.27,2.06
			C26.85,23.65,26.73,23.22,26.73,23.22L26.73,23.22z"/>
	</g>
	<g>
		<path class="st10" d="M26.21,23.28c0.57-0.77,1.39-1.84,1.91-2.63c-0.4,0.85-1.08,2.04-1.53,2.88L26.21,23.28L26.21,23.28z"/>
	</g>
	<g>
		<path class="st10" d="M24.43,22.57c0.72-1.07,1.7-2.6,2.48-3.61c-0.66,1.08-1.49,2.7-2.09,3.83
			C24.82,22.79,24.43,22.57,24.43,22.57L24.43,22.57z"/>
	</g>
	<g>
		<path class="st10" d="M24.42,21.85c0.45-0.73,0.97-1.39,1.53-2.02c-0.44,0.7-0.83,1.45-1.13,2.22L24.42,21.85L24.42,21.85z"/>
	</g>
	<g>
		<path class="st10" d="M24.2,20.98c0.7-0.96,1.38-1.92,2.16-2.81c-0.34,0.48-0.63,1-0.92,1.51c-0.29,0.51-0.58,1.03-0.86,1.54
			C24.58,21.22,24.2,20.98,24.2,20.98L24.2,20.98z"/>
	</g>
	<g>
		<path class="st10" d="M19.64,22.79c-0.31-1.5-0.69-3.01-0.78-4.54c0.19,1.52,0.65,3,1.05,4.48L19.64,22.79L19.64,22.79z"/>
	</g>
	<g>
		<path class="st10" d="M19.64,21.28c-0.15-0.8-0.29-1.61-0.33-2.42c0.12,0.8,0.36,1.58,0.59,2.35L19.64,21.28L19.64,21.28z"/>
	</g>
	<g>
		<polygon class="st10" points="19.77,19.8 19.48,18.17 20.03,19.73 		"/>
	</g>
	<g>
		<path class="st10" d="M18.9,21.53c-0.06-0.35-0.21-1.25-0.25-1.59c-0.02-0.18-0.05-0.35-0.06-0.53c0.05,0.3,0.19,0.73,0.27,1.04
			l0.3,1.03L18.9,21.53L18.9,21.53z"/>
	</g>
	<g>
		<path class="st10" d="M15.89,23.46c-0.45-1.17-0.71-2.51-0.24-3.7c-0.38,1.2-0.03,2.49,0.48,3.59
			C16.14,23.35,15.89,23.46,15.89,23.46L15.89,23.46z"/>
	</g>
	<g>
		<path class="st10" d="M16.06,23.1c-0.25-0.65-0.48-1.38-0.33-2.07c-0.06,0.69,0.25,1.36,0.57,1.95L16.06,23.1L16.06,23.1z"/>
	</g>
	<g>
		<path class="st10" d="M16.21,22.59c-0.33-0.66-0.42-1.46-0.13-2.14c-0.09,0.35-0.11,0.71-0.04,1.05c0.07,0.33,0.21,0.67,0.39,0.95
			C16.43,22.45,16.21,22.59,16.21,22.59L16.21,22.59z"/>
	</g>
	<g>
		<path class="st10" d="M15.43,23.08c-0.21-0.71-0.37-1.46-0.24-2.19c-0.04,0.73,0.21,1.44,0.49,2.09
			C15.68,22.99,15.43,23.08,15.43,23.08L15.43,23.08z"/>
	</g>
	<g>
		<polygon class="st11" points="21.51,22.4 22.62,20.77 21.75,22.53 		"/>
	</g>
	<g>
		<polygon class="st11" points="21.84,22.33 23.14,20.84 22.05,22.5 		"/>
	</g>
	<g>
		<polygon class="st11" points="22.53,21.98 23.68,20.57 22.75,22.14 		"/>
	</g>
	<g>
		<polygon class="st11" points="23.55,21.14 24.09,20.06 23.8,21.24 		"/>
	</g>
	<g>
		<path class="st11" d="M21.46,21.93c0.25-0.54,0.58-1,0.96-1.44c-0.15,0.24-0.28,0.49-0.41,0.75c-0.12,0.25-0.23,0.52-0.3,0.78
			L21.46,21.93L21.46,21.93z"/>
	</g>
	<g>
		<path class="st11" d="M21.55,20.86c0.2-0.46,0.53-0.79,0.85-1.15c-0.23,0.37-0.49,0.78-0.59,1.2
			C21.82,20.91,21.55,20.86,21.55,20.86L21.55,20.86z"/>
	</g>
	<g>
		<path class="st11" d="M30.1,23.41c0.3-1.27,0.63-2.54,0.8-3.84c-0.07,1.31-0.32,2.6-0.53,3.89C30.37,23.46,30.1,23.41,30.1,23.41
			L30.1,23.41z"/>
	</g>
	<g>
		<path class="st11" d="M30.49,23.32c0.36-0.78,0.54-1.67,0.64-2.53c-0.02,0.9-0.1,1.77-0.39,2.63L30.49,23.32L30.49,23.32z"/>
	</g>
	<g>
		<path class="st11" d="M31,22.95c0.24-0.56,0.45-1.15,0.57-1.75c-0.02,0.62-0.15,1.24-0.31,1.85L31,22.95L31,22.95z"/>
	</g>
	<g>
		<polygon class="st11" points="29.86,22.97 30.44,20 30.13,23.01 		"/>
	</g>
	<g>
		<path class="st11" d="M29.57,22.72c-0.12-0.75,0.09-1.51,0.43-2.17c-0.13,0.34-0.21,0.7-0.25,1.06c-0.03,0.34-0.02,0.72,0.08,1.04
			L29.57,22.72L29.57,22.72z"/>
	</g>
	<g>
		<path class="st11" d="M29.15,22.7c-0.2-0.44-0.12-0.96,0.12-1.36c-0.07,0.21-0.1,0.44-0.08,0.65c0.02,0.2,0.09,0.42,0.2,0.58
			C29.38,22.56,29.15,22.7,29.15,22.7L29.15,22.7z"/>
	</g>
	<g>
		<polygon class="st11" points="17.86,23.29 17.3,21.03 18.12,23.21 		"/>
	</g>
	<g>
		<path class="st11" d="M18.72,21.24c-0.02,0.78-0.32,1.51-0.63,2.21l0.02-0.41l0.09-2.54l0.06,2.54l-0.15-0.03
			c0.2-0.57,0.37-1.18,0.34-1.76L18.72,21.24L18.72,21.24z"/>
	</g>
	<g>
		<polygon class="st11" points="17.89,23.05 17.75,20.77 18.16,23.02 		"/>
	</g>
	<g>
		<path class="st11" d="M17.64,23.11c-0.3-0.66-0.67-1.3-0.84-2c0.26,0.67,0.7,1.26,1.07,1.87C17.87,22.97,17.64,23.11,17.64,23.11
			L17.64,23.11z"/>
	</g>
	<g>
		<polygon class="st11" points="17.29,23.01 16.54,21.77 17.51,22.84 		"/>
	</g>
	<g>
		<path class="st11" d="M23.82,32.24c0.67,0.9,1.82,1.54,2.67,0.46c1.51-1.76,2.84-3.7,4.15-5.62c0.64-0.97,1.31-1.93,1.84-2.98
			c-0.51,1.06-1.15,2.04-1.76,3.03c-1.28,1.96-2.54,3.93-4.03,5.75c-0.95,1.25-2.37,0.61-3.16-0.43
			C23.53,32.45,23.82,32.24,23.82,32.24L23.82,32.24z"/>
	</g>
	<g>
		<path class="st11" d="M24.2,32.05c1.2,2.1,2.74-0.7,3.6-1.68c1.07-1.4,2.1-2.85,3.1-4.3c-0.96,1.49-1.93,2.96-2.96,4.41
			c-0.97,1.28-2.54,4.12-4.07,1.74C23.88,32.22,24.2,32.05,24.2,32.05L24.2,32.05z"/>
	</g>
	<g>
		<path class="st11" d="M24.56,31.71c0.12,0.3,0.43,0.95,0.8,0.69c1.05-1.05,1.92-2.3,2.85-3.46c1.23-1.6,2.44-3.21,3.65-4.84
			c-1.89,2.68-3.75,5.39-5.78,7.97c-0.28,0.29-0.53,0.8-1.02,0.69c-0.45-0.13-0.67-0.56-0.84-0.94
			C24.23,31.83,24.56,31.71,24.56,31.71L24.56,31.71z"/>
	</g>
	<g>
		<path class="st11" d="M24.89,31.47c0.01,0.21,0.09,0.51,0.18,0.57c0.02,0.02,0.09,0.02,0.18-0.05c0.48-0.39,0.74-1,1.14-1.5
			c1.85-2.51,3.82-4.92,5.78-7.34c-1.89,2.47-3.79,4.94-5.55,7.49c-0.45,0.55-0.69,1.4-1.4,1.73c-0.51,0.1-0.64-0.52-0.68-0.88
			C24.53,31.49,24.89,31.47,24.89,31.47L24.89,31.47z"/>
	</g>
	<g>
		<path class="st11" d="M25.03,31.06c0,0.1,0.05,0.25,0.06,0.24c-0.04,0.02,0.1-0.02,0.18-0.12c0.55-0.62,1.01-1.4,1.55-2.05
			c0.7-0.92,1.41-1.83,2.14-2.74c-0.67,0.94-1.34,1.89-1.99,2.84c-0.53,0.72-0.91,1.48-1.47,2.18c-0.24,0.28-0.64,0.33-0.77-0.08
			c-0.03-0.09-0.05-0.16-0.05-0.26C24.67,31.07,25.03,31.06,25.03,31.06L25.03,31.06z"/>
	</g>
	<g>
		<polygon class="st11" points="24.81,30.88 29.56,24.25 25.11,31.08 		"/>
	</g>
	<g>
		<path class="st11" d="M23.46,22.4c-0.92,2-1.6,4.14-2.31,6.23l-0.1-0.04c0.51-1.02,1.04-2.05,1.59-3.04
			c0.19-0.33,0.37-0.67,0.6-0.97c-0.22,0.31-0.4,0.65-0.58,0.99c-0.53,1.01-1.03,2.05-1.52,3.08l-0.1-0.04
			c0.66-2.13,1.29-4.26,2.17-6.31C23.21,22.29,23.46,22.4,23.46,22.4L23.46,22.4z"/>
	</g>
	<g>
		<path class="st11" d="M21.09,28.75c0.79-1.46,1.68-2.86,2.68-4.17c-0.92,1.36-1.74,2.81-2.44,4.29L21.09,28.75L21.09,28.75z"/>
	</g>
	<g>
		<path class="st11" d="M20.79,28.89c0.98-2.25,1.88-4.59,3.38-6.54c-1.43,2-2.24,4.37-3.13,6.64
			C21.04,28.98,20.79,28.89,20.79,28.89L20.79,28.89z"/>
	</g>
	<g>
		<path class="st11" d="M20.96,28.23c0.48-1.63,0.87-3.4,1.53-4.97c-0.58,1.6-0.88,3.39-1.27,5.04
			C21.23,28.29,20.96,28.23,20.96,28.23L20.96,28.23z"/>
	</g>
	<g>
		<path class="st11" d="M20.84,27.93c0.23-0.97,0.49-2.42,0.79-3.36c-0.08,0.28-0.11,0.56-0.16,0.84c-0.09,0.54-0.28,2-0.36,2.56
			L20.84,27.93L20.84,27.93z"/>
	</g>
	<g>
		<path class="st11" d="M20.77,27.32c0.07-1,0.13-2.03,0.53-2.96c-0.31,0.95-0.28,1.97-0.26,2.96H20.77L20.77,27.32z"/>
	</g>
	<g>
		<polygon class="st11" points="20.57,26.16 20.8,24.96 20.84,26.18 		"/>
	</g>
	<g>
		<path class="st11" d="M20.1,33.19l0.82-1.01l-0.02,0.05l0.08-1.51v0.02c-0.55-2.52-1.31-5.04-1.49-7.62
			c0.22,2.58,1.03,5.09,1.61,7.6c0,0.02-0.05,1.51-0.05,1.52v0.02l-0.02,0.02l-0.8,1.02L20.1,33.19L20.1,33.19z"/>
	</g>
	<g>
		<path class="st11" d="M19.97,32.86l0.72-0.92l-0.02,0.05c0,0,0.01-1.46,0.01-1.38c-0.49-2.03-0.97-4.07-1.38-6.13
			c-0.11-0.68-0.32-1.38-0.27-2.07c-0.03,0.69,0.18,1.38,0.3,2.06c0.44,2.04,0.96,4.07,1.48,6.1c0,0,0,0.01,0,0.02l0.01,1.4v0.03
			l-0.02,0.02l-0.7,0.93L19.97,32.86L19.97,32.86z"/>
	</g>
	<g>
		<path class="st11" d="M19.86,32.5l0.53-0.64l-0.02,0.05c0,0.01,0.11-1.39,0.11-1.3l-0.58-2.37c-0.15-0.7-0.41-1.69-0.5-2.39
			c0.24,1.36,0.85,3.38,1.2,4.73c0,0,0,0.02,0,0.02l-0.07,1.32v0.02l-0.02,0.02L20,32.62L19.86,32.5L19.86,32.5z"/>
	</g>
	<g>
		<path class="st11" d="M19.85,32.17l0.29-0.44l-0.01,0.04l0.06-1.05c-0.39-1.59-0.83-3.42-1.12-5.11c-0.03-0.25-0.09-0.5-0.06-0.75
			c0.19,1.98,0.86,3.91,1.32,5.85c0,0,0,0.02,0,0.02l-0.04,1.05v0.02l-0.01,0.02l-0.28,0.45C20.01,32.27,19.85,32.17,19.85,32.17
			L19.85,32.17z"/>
	</g>
	<g>
		<path class="st11" d="M19.79,31.98l0.17-1.26v0.03c-0.47-1.89-0.93-3.77-1.31-5.68c-0.1-0.64-0.3-1.27-0.25-1.92
			c-0.04,0.32,0.05,0.64,0.09,0.96c0.44,2.23,1.05,4.43,1.62,6.62L19.97,32L19.79,31.98L19.79,31.98z"/>
	</g>
	<g>
		<path class="st11" d="M19.69,31.26l0.02-0.69l0,0.02c-0.12-0.45-0.41-1.61-0.51-2.06c-0.05-0.23-0.11-0.46-0.12-0.69
			c0.05,0.4,0.25,0.97,0.36,1.36c0,0.01,0.42,1.34,0.42,1.36v0.01l0.02,0.69L19.69,31.26L19.69,31.26z"/>
	</g>
	<g>
		<polygon class="st11" points="19.55,30.75 19.4,30.02 19.72,30.7 		"/>
	</g>
	<g>
		<path class="st11" d="M16.45,32.95l1.2,1.13l-0.13,0.08c-0.43-1.68-0.84-3.37-1.23-5.07c-0.34-1.69-0.87-3.39-0.93-5.12
			c0.08,1.73,0.64,3.41,1,5.1c0.44,1.77,0.9,3.54,1.38,5.3l-0.2-0.18l-1.21-1.11L16.45,32.95L16.45,32.95z"/>
	</g>
	<g>
		<path class="st11" d="M16.27,32.56l0.97,0.9l-0.12,0.07l-0.79-3.11c-0.22-0.92-0.57-2.21-0.74-3.12c0.41,1.77,1.19,4.41,1.68,6.19
			l0.07,0.24l-0.19-0.17l-0.99-0.88L16.27,32.56L16.27,32.56z"/>
	</g>
	<g>
		<path class="st11" d="M16.27,32.21l0.55,0.51L16.7,32.8c-0.61-2.4-1.49-4.85-1.74-7.3c0.08,1.24,0.53,2.45,0.83,3.66
			c0.37,1.3,0.75,2.59,1.15,3.88c-0.14-0.12-0.64-0.55-0.78-0.69L16.27,32.21L16.27,32.21z"/>
	</g>
	<g>
		<polygon class="st11" points="16.03,32.04 16.36,32.05 16.28,32.16 15.36,29.06 16.44,32.11 16.47,32.21 16.36,32.21 16.03,32.22 
					"/>
	</g>
	<g>
		<polygon class="st11" points="15.91,31.81 15.36,30.17 16.07,31.74 		"/>
	</g>
	<g>
		<polygon class="st10" points="28.58,20.8 28.8,16.57 29.02,20.8 		"/>
	</g>
	<g>
		<path class="st10" d="M30.39,18.56c0.57-0.66,1.27-1.61,1.69-2.19l-0.46-0.84l0.55,0.78l0.01,0.02c-0.39,0.88-0.96,1.66-1.47,2.47
			C30.72,18.8,30.39,18.56,30.39,18.56L30.39,18.56z"/>
	</g>
	<g>
		<path class="st10" d="M29.68,19.37c0.54-0.92,1.2-1.8,1.58-2.8c-0.23,1.05-0.77,2.02-1.18,3.02
			C30.07,19.58,29.68,19.37,29.68,19.37L29.68,19.37z"/>
	</g>
	<g>
		<path class="st10" d="M28.97,20.11c0.46-0.94,1.03-1.85,1.31-2.86c-0.01,0.27-0.09,0.53-0.16,0.78c-0.22,0.77-0.48,1.52-0.74,2.27
			C29.38,20.3,28.97,20.11,28.97,20.11L28.97,20.11z"/>
	</g>
	<g>
		<polygon class="st10" points="28.8,20.55 29.34,18.02 29.25,20.6 		"/>
	</g>
	<g>
		<path class="st10" d="M28.25,20.62c-0.12-1.49-0.41-3.02-0.15-4.49c-0.11,1.48,0.33,2.97,0.59,4.42
			C28.69,20.54,28.25,20.62,28.25,20.62L28.25,20.62z"/>
	</g>
	<g>
		<polygon class="st10" points="27.73,19.65 27.68,17.49 28.18,19.59 		"/>
	</g>
	<g>
		<path class="st10" d="M27.14,18.81c0.05-0.85-0.01-1.74,0.23-2.56c-0.05,0.21-0.02,0.42-0.02,0.63c0.05,0.63,0.14,1.27,0.24,1.89
			C27.59,18.78,27.14,18.81,27.14,18.81L27.14,18.81z"/>
	</g>
	<g>
		<path class="st10" d="M26.67,18.43c0-0.32-0.02-0.67,0.15-0.94c-0.02,0.15,0.04,0.29,0.09,0.43c0.06,0.14,0.12,0.27,0.19,0.39
			L26.67,18.43L26.67,18.43z"/>
	</g>
	<g>
		<path class="st10" d="M21.07,20.52c0.53-0.75,1.05-1.53,1.73-2.15c-0.62,0.68-1.05,1.5-1.5,2.29
			C21.3,20.66,21.07,20.52,21.07,20.52L21.07,20.52z"/>
	</g>
	<g>
		<path class="st10" d="M21.2,19.97c0.35-0.44,1.23-1.58,1.55-2.02c0.16-0.23,0.34-0.46,0.48-0.7c-0.12,0.25-0.28,0.49-0.42,0.74
			c-0.28,0.46-1.08,1.68-1.39,2.14C21.42,20.13,21.2,19.97,21.2,19.97L21.2,19.97z"/>
	</g>
	<g>
		<polygon class="st10" points="21.51,19.22 22.5,18.02 21.73,19.38 		"/>
	</g>
	<g>
		<polygon class="st11" points="32.17,20.37 32.91,15.88 32.43,20.41 		"/>
	</g>
	<g>
		<polygon class="st11" points="33.77,18.59 34.15,17.93 34.02,18.69 		"/>
	</g>
	<g>
		<path class="st11" d="M33.22,19.43c0.23-0.51,0.55-1.04,0.67-1.59c-0.04,0.57-0.28,1.14-0.42,1.69L33.22,19.43L33.22,19.43z"/>
	</g>
	<g>
		<polygon class="st11" points="32.86,19.7 33.45,18.37 33.12,19.79 		"/>
	</g>
	<g>
		<path class="st11" d="M32.4,20.07c0.37-0.82,0.73-1.67,0.81-2.58c0,0.92-0.28,1.81-0.57,2.68C32.65,20.17,32.4,20.07,32.4,20.07
			L32.4,20.07z"/>
	</g>
	<g>
		<path class="st11" d="M31.99,20c0.11-1.08,0.13-2.19,0.4-3.25c-0.18,1.07-0.11,2.17-0.13,3.25L31.99,20L31.99,20z"/>
	</g>
	<g>
		<path class="st11" d="M31.7,19.7c-0.03-0.59-0.08-1.2,0.07-1.77c-0.04,0.29,0,0.58,0.03,0.88c0.04,0.29,0.09,0.58,0.16,0.86
			L31.7,19.7L31.7,19.7z"/>
	</g>
	<g>
		<polygon class="st11" points="31.31,18.97 31.4,18.26 31.58,18.95 		"/>
	</g>
	<g>
		<path class="st11" d="M15.47,18.94c0.13-0.4,0.37-0.98,0.54-1.36l-0.21,0.7c-0.06,0.2-0.11,0.5-0.16,0.71
			C15.64,18.99,15.47,18.94,15.47,18.94L15.47,18.94z"/>
	</g>
	<g>
		<polygon class="st11" points="16.1,17.87 15.84,18.37 15.93,17.81 		"/>
	</g>
	<g>
		<path class="st11" d="M20.39,17.66c-0.52-0.81-1.22-1.6-1.44-2.56c0.3,0.92,1.06,1.63,1.65,2.39
			C20.6,17.49,20.39,17.66,20.39,17.66L20.39,17.66z"/>
	</g>
	<g>
		<path class="st11" d="M20.61,16.87c-0.03,0.05-0.01,0.02-0.01,0.02c0.02-0.22-0.07-0.44-0.15-0.66c-0.09-0.24-0.21-0.48-0.32-0.72
			c0.27,0.38,0.57,0.77,0.71,1.22c0.02,0.12,0.06,0.17-0.02,0.3L20.61,16.87L20.61,16.87z"/>
	</g>
	<g>
		<polygon class="st11" points="20.53,17.14 20.13,16.17 20.77,17.01 		"/>
	</g>
	<g>
		<path class="st11" d="M20.45,17.34c-0.34-0.53-0.76-1.04-0.97-1.63c0.28,0.55,0.77,0.99,1.17,1.46
			C20.66,17.17,20.45,17.34,20.45,17.34L20.45,17.34z"/>
	</g>
	<g>
		<path class="st11" d="M20.24,17.94c-0.28-0.37-0.65-0.73-0.76-1.2c0.03,0.12,0.11,0.21,0.18,0.29c0.23,0.26,0.5,0.49,0.76,0.71
			C20.42,17.74,20.24,17.94,20.24,17.94L20.24,17.94z"/>
	</g>
	<g>
		<path class="st11" d="M20.24,18.21c-0.53-0.53-1.15-1.06-1.38-1.79c0.32,0.68,0.98,1.13,1.55,1.58
			C20.41,18,20.24,18.21,20.24,18.21L20.24,18.21z"/>
	</g>
	<g>
		<path class="st10" d="M16.96,20.77c0.02-1.49-0.02-3.06,0.14-4.54c-0.06,1.49,0.07,3.05,0.14,4.53
			C17.23,20.76,16.96,20.77,16.96,20.77L16.96,20.77z"/>
	</g>
	<g>
		<polygon class="st10" points="17.96,17.94 17.99,15.99 18.24,17.92 		"/>
	</g>
	<g>
		<path class="st10" d="M17.73,19.3c0.05-0.92,0.14-1.84,0.02-2.76c0.21,0.9,0.2,1.84,0.24,2.76C18,19.31,17.73,19.3,17.73,19.3
			L17.73,19.3z"/>
	</g>
	<g>
		<path class="st10" d="M17.46,20.06c0.03-0.43,0.11-1.52,0.13-1.93c0-0.21,0.03-0.43,0.01-0.64c0.07,0.37,0.07,0.91,0.09,1.29
			l0.05,1.29L17.46,20.06L17.46,20.06z"/>
	</g>
	<g>
		<path class="st10" d="M17.27,20.34c0.05-1.29,0.16-3.09,0.14-4.36c0.06,0.72,0.07,1.45,0.09,2.18l0.04,2.18L17.27,20.34
			L17.27,20.34z"/>
	</g>
	<g>
		<path class="st10" d="M16.66,20.5c0.05-0.48,0.15-1.17,0.14-1.64c0.09,0.47,0.1,1.17,0.14,1.66C16.93,20.51,16.66,20.5,16.66,20.5
			L16.66,20.5z"/>
	</g>
	<g>
		<path class="st10" d="M16.36,20.06c0.06-0.65,0.17-1.57,0.18-2.21c0.04,0.37,0.05,0.74,0.06,1.11l0.02,1.11L16.36,20.06
			L16.36,20.06z"/>
	</g>
	<g>
		<polygon class="st10" points="34.56,17.89 33.62,15.25 34.82,17.79 		"/>
	</g>
	<g>
		<path class="st10" d="M34.67,17.2c-0.15-0.37-0.53-1.33-0.69-1.68c-0.09-0.18-0.15-0.37-0.27-0.54c0.23,0.27,0.45,0.74,0.63,1.04
			l0.58,1.07L34.67,17.2L34.67,17.2z"/>
	</g>
	<g>
		<path class="st10" d="M33.77,17.7c-0.13-0.62-0.34-1.24-0.33-1.88c0.08,0.62,0.37,1.21,0.59,1.8
			C34.03,17.62,33.77,17.7,33.77,17.7L33.77,17.7z"/>
	</g>
	<g>
		<path class="st10" d="M22.62,20.32c1.21-1.71,2.6-3.35,3.56-5.22c-0.83,1.94-2.1,3.67-3.19,5.47
			C22.99,20.58,22.62,20.32,22.62,20.32L22.62,20.32z"/>
	</g>
	<g>
		<path class="st10" d="M26.61,16.41c0.19-0.42,0.44-0.85,0.53-1.31c0.02,0.12,0.02,0.24,0.01,0.36c-0.02,0.36-0.07,0.72-0.12,1.08
			C27.04,16.54,26.61,16.41,26.61,16.41L26.61,16.41z"/>
	</g>
	<g>
		<path class="st10" d="M25.72,17.84c0.32-0.64,0.7-1.27,0.86-1.97c0.01,0.18-0.02,0.37-0.05,0.54c-0.1,0.54-0.24,1.07-0.39,1.59
			C26.14,18.02,25.72,17.84,25.72,17.84L25.72,17.84z"/>
	</g>
	<g>
		<path class="st10" d="M24.63,18.85c0.44-0.72,0.97-1.42,1.22-2.23c-0.01,0.21-0.07,0.43-0.14,0.63c-0.2,0.62-0.44,1.22-0.69,1.81
			L24.63,18.85L24.63,18.85z"/>
	</g>
	<g>
		<path class="st10" d="M23.49,19.81c0.52-0.68,1.17-1.34,1.47-2.14c-0.17,0.87-0.7,1.63-1.1,2.4
			C23.86,20.06,23.49,19.81,23.49,19.81L23.49,19.81z"/>
	</g>
	<g>
		<path class="st10" d="M22.52,19.82c0.56-0.9,1.2-1.89,1.79-2.78c0.21-0.3,0.41-0.61,0.66-0.88c-0.37,0.52-0.77,1.35-1.07,1.91
			c-0.33,0.65-0.66,1.31-0.98,1.96L22.52,19.82L22.52,19.82z"/>
	</g>
	<g>
		<polygon class="st11" points="29.87,16.81 30.1,14.25 30.32,16.81 		"/>
	</g>
	<g>
		<polygon class="st11" points="30.33,16.57 30.37,15.11 30.78,16.52 		"/>
	</g>
	<g>
		<polygon class="st11" points="31.04,16.2 30.93,15.25 31.46,16.04 		"/>
	</g>
	<g>
		<polygon class="st11" points="32.53,15.14 31.87,14.44 32.77,14.76 		"/>
	</g>
	<g>
		<polygon class="st11" points="28.89,16.15 29.18,15.11 29.34,16.18 		"/>
	</g>
	<g>
		<polygon class="st11" points="28.18,15.28 28.8,14.25 28.6,15.43 		"/>
	</g>
	<g>
		<polygon class="st11" points="31.92,15.66 30.88,13.73 32.29,15.4 		"/>
	</g>
	<g>
		<polygon class="st11" points="27.86,14.68 28.83,13.55 28.23,14.92 		"/>
	</g>
	<g>
		<polygon class="st11" points="29.39,16.62 29.64,15.51 29.84,16.63 		"/>
	</g>
	<g>
		<path class="st11" d="M21.83,18.19c0.6-0.94,1.31-1.87,2.26-2.47c-0.89,0.67-1.5,1.63-2.02,2.6
			C22.06,18.32,21.83,18.19,21.83,18.19L21.83,18.19z"/>
	</g>
	<g>
		<path class="st11" d="M21.98,17.68c0.32-0.41,0.76-1.06,1.14-1.42c-0.32,0.4-0.66,1.11-0.91,1.57
			C22.21,17.82,21.98,17.68,21.98,17.68L21.98,17.68z"/>
	</g>
	<g>
		<path class="st11" d="M25.17,42.72c0.41-1.38-0.12-2.86-0.54-4.18c-0.2-0.59-0.55-1.42-0.81-2c-0.29-0.66-0.61-1.3-0.91-1.96
			c0.2,0.3,0.39,0.61,0.58,0.92C24.55,37.46,26.09,40.49,25.17,42.72L25.17,42.72z"/>
	</g>
	<g>
		<path class="st11" d="M24.82,42.45c-0.11-2.5-0.93-4.88-2.03-7.11C24.22,37.38,25.09,39.95,24.82,42.45L24.82,42.45z"/>
	</g>
	<g>
		<path class="st11" d="M24.27,40.49c-0.53-1.17-0.9-2.41-1.08-3.69C23.73,37.98,24.09,39.21,24.27,40.49L24.27,40.49z"/>
	</g>
	<g>
		<path class="st11" d="M14.56,44.69c1.28,0.38,2.44-2.42,2.93-3.34c0.24-0.48,0.45-0.97,0.7-1.45c-0.14,0.52-0.3,1.04-0.51,1.53
			C17.29,42.44,15.94,45.33,14.56,44.69L14.56,44.69z"/>
	</g>
	<g>
		<path class="st11" d="M14.37,44.22c0.67,0.55,1.73-1.31,2.06-1.79c0.54-0.86,1.02-1.75,1.56-2.62c-0.35,0.96-0.79,1.89-1.33,2.76
			C16.33,43.11,15.06,44.96,14.37,44.22L14.37,44.22z"/>
	</g>
	<g>
		<path class="st11" d="M14.37,43.67c0.92,0.61,2.75-3.38,3.22-4.09c0.14-0.23,0.26-0.46,0.4-0.69c-0.18,0.5-0.37,0.99-0.6,1.47
			C17.06,41.1,15.35,44.44,14.37,43.67L14.37,43.67z"/>
	</g>
	<g>
		<path class="st11" d="M14.56,43.16c1.55-1.16,2.23-3.08,3.19-4.72c-0.42,1.39-1.05,2.75-2.02,3.85
			C15.41,42.65,15.04,43,14.56,43.16L14.56,43.16z"/>
	</g>
	<g>
		<path class="st11" d="M15.02,42.58c0.55-1.6,1.28-3.12,2.17-4.56C16.64,39.62,15.91,41.14,15.02,42.58L15.02,42.58z"/>
	</g>
	<g>
		<path class="st11" d="M15.86,41.55c0.38-1.16,0.92-2.24,1.63-3.23C17.11,39.48,16.57,40.56,15.86,41.55L15.86,41.55z"/>
	</g>
	<g>
		<path class="st11" d="M14.13,43.29c0.1-2.76,0.94-5.48,2.16-7.95C15.41,37.95,14.59,40.58,14.13,43.29L14.13,43.29z"/>
	</g>
	<g>
		<path class="st11" d="M14.56,41.55c0.41-1.85,0.89-3.74,1.82-5.4C15.8,37.96,15.33,39.8,14.56,41.55L14.56,41.55z"/>
	</g>
	<g>
		<path class="st11" d="M15.59,39.48c0.32-1.22,0.81-2.36,1.48-3.43C16.74,37.26,16.25,38.42,15.59,39.48L15.59,39.48z"/>
	</g>
	<g>
		<path class="st10" d="M24.04,46.53c0.16-2.21-0.44-4.42-0.9-6.56c-0.44-1.88-1.21-4.55-1.73-6.44c0.8,2.08,1.46,4.21,1.99,6.38
			C23.84,42.06,24.41,44.32,24.04,46.53L24.04,46.53z"/>
	</g>
	<g>
		<path class="st10" d="M23.46,46.87c-2.95-3.57-5.14-7.81-6.4-12.27C18.67,38.95,20.8,43.08,23.46,46.87L23.46,46.87z"/>
	</g>
	<g>
		<path class="st10" d="M23.66,46.31c-0.36-3.65-0.91-7.3-2.13-10.76C23.1,38.88,23.67,42.65,23.66,46.31L23.66,46.31z"/>
	</g>
	<g>
		<path class="st10" d="M23.35,45.44c-0.94-3.76-1.59-7.78-2.7-11.49C22.12,37.6,22.76,41.55,23.35,45.44L23.35,45.44z"/>
	</g>
	<g>
		<path class="st10" d="M22.8,44.14c-0.64-2.16-1.11-4.38-1.39-6.62C22.04,39.69,22.51,41.9,22.8,44.14L22.8,44.14z"/>
	</g>
	<g>
		<path class="st10" d="M22.1,42.58c-0.76-2.26-1.27-4.72-1.83-7.04C21.19,37.79,21.68,40.2,22.1,42.58L22.1,42.58z"/>
	</g>
	<g>
		<path class="st10" d="M20.93,39.48c-0.47-0.86-0.77-1.79-0.89-2.76C20.51,37.58,20.81,38.51,20.93,39.48L20.93,39.48z"/>
	</g>
	<g>
		<path class="st10" d="M21.92,44.14c-1.43-2.5-2.91-5.06-3.72-7.83c0.45,1.16,1.34,2.75,1.89,3.9
			C20.63,41.36,21.43,42.98,21.92,44.14L21.92,44.14z"/>
	</g>
	<g>
		<path class="st10" d="M20.44,40.22c-0.92-1.53-1.8-3.14-2.24-4.88C18.98,36.95,19.85,38.52,20.44,40.22L20.44,40.22z"/>
	</g>
	<g>
		<path class="st10" d="M19.49,37.06c-0.45-0.52-0.73-1.16-0.78-1.85C19.11,35.77,19.37,36.38,19.49,37.06L19.49,37.06z"/>
	</g>
	<g>
		<path class="st10" d="M22.76,46.53c-0.66-0.51-1.29-1.13-1.58-1.92C21.78,45.19,22.37,45.77,22.76,46.53L22.76,46.53z"/>
	</g>
	<g>
		<path class="st10" d="M26.53,38.8c1.17,0.69,1.84-1.79,2.06-2.59c0.12-0.43,0.2-0.87,0.29-1.3c-0.07,0.44-0.13,0.88-0.23,1.32
			c-0.21,1-0.82,3.63-2.3,2.78C26.34,39,26.53,38.8,26.53,38.8L26.53,38.8z"/>
	</g>
	<g>
		<path class="st10" d="M26.51,38.39c0.85,0.45,1.34-0.84,1.53-1.49c0.16-0.51,0.25-1.04,0.34-1.56c-0.06,0.53-0.12,1.06-0.24,1.59
			c-0.16,0.81-0.73,2.23-1.78,1.68L26.51,38.39L26.51,38.39z"/>
	</g>
	<g>
		<path class="st10" d="M26.43,37.99c0.49,0.35,0.98-0.16,1.15-0.63c0.23-0.53,0.31-1.11,0.39-1.67c-0.03,0.43-0.05,0.87-0.15,1.29
			c-0.1,0.44-0.22,0.88-0.59,1.19c-0.26,0.21-0.65,0.22-0.95,0.04L26.43,37.99L26.43,37.99z"/>
	</g>
	<g>
		<path class="st10" d="M26.34,37.65c0.34,0.24,0.75,0.06,0.94-0.3c0.21-0.37,0.3-0.8,0.37-1.22c-0.02,0.43-0.07,0.87-0.25,1.28
			c-0.18,0.46-0.75,0.74-1.21,0.46C26.2,37.88,26.34,37.65,26.34,37.65L26.34,37.65z"/>
	</g>
	<g>
		<path class="st10" d="M26.46,37.23c0.15,0.26,0.35,0.19,0.49-0.05c0.15-0.24,0.23-0.52,0.31-0.79c-0.08,0.41-0.07,1.02-0.53,1.22
			c-0.2,0.05-0.37-0.07-0.49-0.21C26.24,37.39,26.46,37.23,26.46,37.23L26.46,37.23z"/>
	</g>
	<g>
		<path class="st10" d="M26.44,36.88c0.1,0.12,0.23,0.11,0.32-0.04c0.1-0.15,0.15-0.35,0.19-0.53c-0.02,0.29,0.02,0.71-0.32,0.85
			c-0.14,0.04-0.27-0.01-0.38-0.08L26.44,36.88L26.44,36.88z"/>
	</g>
	<g>
		<path class="st10" d="M26.32,36.56c0.12,0.01,0.28-0.05,0.34-0.17c0.01,0.08-0.01,0.17-0.07,0.24c-0.06,0.08-0.12,0.14-0.21,0.19
			L26.32,36.56L26.32,36.56z"/>
	</g>
	<g>
		<path class="st10" d="M26.81,39.25c0.4,0.04,0.86-0.05,1.15-0.36c-0.25,0.39-0.71,0.58-1.16,0.63
			C26.8,39.53,26.81,39.25,26.81,39.25L26.81,39.25z"/>
	</g>
	<g>
		<polygon class="st10" points="15.33,34.97 15.99,34.3 15.39,35.03 		"/>
	</g>
	<g>
		<polygon class="st10" points="15.21,34.54 15.79,34.14 15.26,34.61 		"/>
	</g>
	<g>
		<polygon class="st10" points="15.19,34.01 15.52,33.94 15.22,34.09 		"/>
	</g>
	<g>
		<path class="st10" d="M16.19,49.87c0.25-2.31,0.69-4.6,1.3-6.84C17.24,45.33,16.81,47.62,16.19,49.87L16.19,49.87z"/>
	</g>
	<g>
		<path class="st10" d="M15.02,47.87c-0.54-0.76-0.3-1.99,0.55-2.43C15.02,46.18,14.88,46.97,15.02,47.87L15.02,47.87z"/>
	</g>
	<g>
		<path class="st10" d="M15.86,49.51c-0.13-1.29-0.05-2.63,0.43-3.85C16.18,46.96,16.1,48.23,15.86,49.51L15.86,49.51z"/>
	</g>
	<g>
		<path class="st10" d="M15.57,49.15c-0.21-0.56-0.28-1.22,0-1.75C15.66,47.99,15.74,48.56,15.57,49.15L15.57,49.15z"/>
	</g>
	<g>
		<path class="st10" d="M15.29,48.46c-0.3-0.73-0.43-1.73,0.12-2.37C15.22,46.87,15.38,47.64,15.29,48.46L15.29,48.46z"/>
	</g>
	<g>
		<path class="st10" d="M20.65,49.63c-0.35-1.74-0.51-3.5-0.48-5.27C20.51,46.1,20.67,47.86,20.65,49.63L20.65,49.63z"/>
	</g>
	<g>
		<path class="st10" d="M22.6,47.59c-0.76-0.65-1.51-1.43-1.81-2.4C21.42,45.97,22.11,46.68,22.6,47.59L22.6,47.59z"/>
	</g>
	<g>
		<path class="st10" d="M21.07,49.36c-0.32-0.75-0.47-1.54-0.42-2.36C20.98,47.75,21.12,48.55,21.07,49.36L21.07,49.36z"/>
	</g>
	<g>
		<path class="st10" d="M21.69,48.92c-0.58-1.02-0.98-2.11-1.21-3.26C21.06,46.68,21.46,47.77,21.69,48.92L21.69,48.92z"/>
	</g>
	<g>
		<path class="st10" d="M22.29,48.28c-0.38-0.23-0.62-0.57-0.7-1.01C21.98,47.49,22.22,47.84,22.29,48.28L22.29,48.28z"/>
	</g>
	<g>
		<path class="st10" d="M20.26,54.94c-0.45-1.05-0.91-2.33-0.57-3.46C19.72,52.59,20.17,53.79,20.26,54.94L20.26,54.94z"/>
	</g>
	<g>
		<line class="st12" x1="18.43" y1="51.57" x2="18.59" y2="40.83"/>
		<path class="st11" d="M18.43,51.57c-0.13-3.58-0.07-7.16,0.16-10.73C18.72,44.41,18.66,47.99,18.43,51.57L18.43,51.57z"/>
	</g>
	<g>
		<path class="st13" d="M19.46,50.88c0,0,0.55,0.04,0.49-1.37c-0.07-1.41-0.32-6.06-0.32-6.06"/>
		<path class="st11" d="M19.46,50.88c0.16-0.02,0.26-0.17,0.32-0.3c0.16-0.45,0.09-0.92,0.05-1.39c-0.06-0.64-0.09-1.27-0.13-1.91
			c-0.05-1.27-0.11-2.55-0.07-3.82c0.25,1.9,0.35,3.81,0.41,5.72c0,0.47,0.04,1-0.19,1.43C19.76,50.75,19.62,50.89,19.46,50.88
			L19.46,50.88z"/>
	</g>
	<g>
		<path class="st13" d="M17.19,50.74c0,0-0.46-0.07-0.23-1.48c0.24-1.41,0.84-5.37,0.84-5.37"/>
		<path class="st11" d="M17.19,50.74c-0.77-0.36-0.09-2.66-0.06-3.41c0.19-1.15,0.39-2.31,0.67-3.45c-0.12,1.75-0.39,3.49-0.71,5.22
			c-0.08,0.43-0.18,0.85-0.12,1.28C17.01,50.53,17.05,50.68,17.19,50.74L17.19,50.74z"/>
	</g>
	<g>
		<path class="st13" d="M19.15,51.25c0,0,0.69-0.92,0.21-5.59"/>
		<path class="st11" d="M19.15,51.25c0.48-1.82,0.14-3.72,0.21-5.59c0.2,0.92,0.29,1.87,0.3,2.81
			C19.64,49.4,19.64,50.42,19.15,51.25L19.15,51.25z"/>
	</g>
	<g>
		<path class="st13" d="M18.93,51.25c0,0,0.25-5.73,0.17-8.09"/>
		<path class="st11" d="M18.93,51.25c-0.08-2.57,0.05-5.52,0.17-8.09C19.34,45.85,19.21,48.56,18.93,51.25L18.93,51.25z"/>
	</g>
	<g>
		<line class="st12" x1="18.7" y1="51.25" x2="18.77" y2="47.4"/>
		<path class="st11" d="M18.7,51.25c-0.16-1.29-0.14-2.57,0.07-3.85C18.93,48.68,18.91,49.97,18.7,51.25L18.7,51.25z"/>
	</g>
	<g>
		<path class="st13" d="M18.16,51.48c0,0-0.06-3.91,0.04-5.62"/>
		<path class="st11" d="M18.16,51.48c-0.2-1.87-0.23-3.75,0.04-5.62C18.3,47.74,18.32,49.6,18.16,51.48L18.16,51.48z"/>
	</g>
	<g>
		<path class="st13" d="M17.8,51.14c0,0-0.31-1.66-0.07-3.55"/>
		<path class="st11" d="M17.8,51.14c-0.37-1.14-0.4-2.4-0.07-3.55C17.78,48.79,17.8,49.93,17.8,51.14L17.8,51.14z"/>
	</g>
	<g>
		<path class="st13" d="M17.49,50.46c0,0-0.37-0.67-0.26-1.31"/>
		<path class="st11" d="M17.49,50.46c-0.37-0.3-0.52-0.89-0.26-1.31C17.35,49.63,17.46,49.97,17.49,50.46L17.49,50.46z"/>
	</g>
	<g>
		<path class="st13" d="M24.56,55.24c0,0-0.62-6.03-1.21-7.37"/>
		<path class="st11" d="M24.56,55.24c-0.49-2.4-0.65-4.99-1.21-7.37C24.27,50.19,24.43,52.77,24.56,55.24L24.56,55.24z"/>
	</g>
	<g>
		<path class="st13" d="M24.11,55.24c0,0-0.3-3.81-0.45-4.5"/>
		<path class="st11" d="M24.11,55.24c-0.32-1.46-0.4-3.01-0.45-4.5C24.08,52.2,24.17,53.73,24.11,55.24L24.11,55.24z"/>
	</g>
	<g>
		<path class="st13" d="M23.66,55.08c-0.44-5.05-0.63-6.06-0.63-6.06"/>
		<path class="st11" d="M23.66,55.08c-0.37-2-0.53-4.03-0.63-6.06C23.5,51.01,23.66,53.04,23.66,55.08L23.66,55.08z"/>
	</g>
	<g>
		<path class="st13" d="M23.16,55.24c0,0-0.18-4.49-0.36-4.69"/>
		<path class="st11" d="M23.16,55.24c-0.29-1.55-0.24-3.13-0.36-4.69C23.28,52.05,23.24,53.68,23.16,55.24L23.16,55.24z"/>
	</g>
	<g>
		<path class="st13" d="M22.8,55c0,0-0.31-4.87-0.5-5.37"/>
		<path class="st11" d="M22.8,55c-0.33-1.78-0.37-3.57-0.5-5.37C22.79,51.37,22.83,53.21,22.8,55L22.8,55z"/>
	</g>
	<g>
		<path class="st13" d="M22.29,55.08c0,0,0.02-2.89-0.29-4.52"/>
		<path class="st11" d="M22.29,55.08c-0.18-1.31-0.23-3.19-0.29-4.52C22.44,52.02,22.47,53.57,22.29,55.08L22.29,55.08z"/>
	</g>
	<g>
		<path class="st13" d="M21.95,55.08c0,0-0.12-3.91-0.54-5.08"/>
		<path class="st11" d="M21.95,55.08c-0.28-1.66-0.28-3.42-0.54-5.08C22.03,51.6,22.04,53.39,21.95,55.08L21.95,55.08z"/>
	</g>
	<g>
		<path class="st13" d="M21.6,54.94c0,0-0.11-3.57-0.52-4.19"/>
		<path class="st11" d="M21.6,54.94c-0.28-1.35-0.23-2.9-0.52-4.19C21.74,52,21.68,53.55,21.6,54.94L21.6,54.94z"/>
	</g>
	<g>
		<path class="st13" d="M21.18,53.21c0,0-0.32-2.46-0.53-2.46"/>
		<path class="st11" d="M21.18,53.21c-0.27-0.7-0.36-1.43-0.45-2.17c-0.02-0.1-0.01-0.22-0.08-0.29c0.11,0.03,0.15,0.16,0.21,0.25
			C21.14,51.69,21.25,52.45,21.18,53.21L21.18,53.21z"/>
	</g>
	<g>
		<path class="st13" d="M16.07,54.07c0,0,0.13-1.98,0.4-3.11"/>
		<path class="st11" d="M16.07,54.07c-0.1-1.05-0.01-2.13,0.4-3.11C16.43,52.02,16.34,53.04,16.07,54.07L16.07,54.07z"/>
	</g>
	<g>
		<path class="st13" d="M15.69,53.96c0,0,0.03-2.25,0.38-3.41"/>
		<path class="st11" d="M15.69,53.96c-0.15-1.14-0.09-2.35,0.38-3.41C15.98,51.57,15.9,52.97,15.69,53.96L15.69,53.96z"/>
	</g>
	<g>
		<path class="st13" d="M14.92,53.6c0,0,0.01-2.48,0.48-3.59"/>
		<path class="st11" d="M14.92,53.6c-0.15-1.2-0.11-2.52,0.48-3.59C15.18,51.18,15.15,52.41,14.92,53.6L14.92,53.6z"/>
	</g>
	<g>
		<path class="st13" d="M14.56,53.47c0,0,0.05-1.65,0.17-2.06"/>
		<path class="st11" d="M14.56,53.47c-0.15-0.69-0.15-1.42,0.17-2.06C14.78,52.11,14.78,52.79,14.56,53.47L14.56,53.47z"/>
	</g>
	<g>
		<path class="st13" d="M14.28,53.4c0,0,0.16-4.47,0.37-4.95"/>
		<path class="st11" d="M14.28,53.4c-0.09-1.65-0.11-3.36,0.37-4.95C14.53,50.1,14.56,51.76,14.28,53.4L14.28,53.4z"/>
	</g>
	<g>
		<path class="st10" d="M19.93,13.73c0.29-0.39,0.66-0.75,1.13-0.92C20.73,13.1,20.3,13.5,19.93,13.73L19.93,13.73z"/>
	</g>
	<g>
		<path class="st10" d="M20.33,14.56c0.02,0.1,0.08,0.12,0.15,0.05c0.35-0.47,0.7-0.97,1.2-1.31c-0.39,0.46-0.73,0.94-1.16,1.36
			c-0.04,0.02-0.09,0.05-0.14,0.02C20.32,14.66,20.33,14.6,20.33,14.56L20.33,14.56z"/>
	</g>
	<g>
		<path class="st10" d="M21.6,15.71c0.19,0.55,0.78-0.3,0.97-0.5c0.11-0.49,0.35-1.24,0.56-1.81c-0.12,0.64-0.28,1.26-0.46,1.88
			c-0.16,0.18-0.31,0.37-0.51,0.51C21.98,15.95,21.61,16.05,21.6,15.71L21.6,15.71z"/>
	</g>
	<g>
		<path class="st10" d="M24.82,13.89c0.76-0.3,0.53-1.09,0.64-1.73C25.56,12.8,25.69,13.78,24.82,13.89L24.82,13.89z"/>
	</g>
	<g>
		<path class="st10" d="M27.58,12.51c0.21-0.03,0.62,0.01,0.69-0.21c0.01-0.1-0.07-0.24-0.11-0.37c-0.15-0.44-0.12-0.48,0.09-0.04
			C28.66,12.52,28.13,12.68,27.58,12.51L27.58,12.51z"/>
	</g>
	<g>
		<path class="st11" d="M19.97,14.03c-0.01,0.06-0.02,0.13,0,0.19c0.01,0.01,0,0,0.02,0c0.39-0.48,0.85-0.93,1.42-1.18
			c-0.49,0.4-0.92,0.83-1.4,1.24C19.86,14.31,19.94,14.09,19.97,14.03L19.97,14.03z"/>
	</g>
	<g>
		<path class="st11" d="M20.65,15.25c0.16,0.74,0.8-0.28,0.99-0.52c0.31-0.42,0.59-0.87,0.85-1.32c-0.17,0.51-0.44,0.97-0.75,1.4
			C21.56,15.09,20.73,16.11,20.65,15.25L20.65,15.25z"/>
	</g>
	<g>
		<path class="st11" d="M23.17,15.11c0.41-0.21,0.82-0.53,0.93-0.99c0.11-0.46,0.2-0.95,0.34-1.4c-0.04,0.49-0.12,0.95-0.21,1.44
			C24.09,14.64,23.64,14.99,23.17,15.11L23.17,15.11z"/>
	</g>
	<g>
		<path class="st11" d="M26.05,13.15c0.25-0.13,0.58-0.22,0.75-0.45c0.06-0.11-0.04-0.16-0.07-0.23c-0.14-0.78,0.02-0.39,0.09-0.05
			C27.26,12.86,26.4,13.14,26.05,13.15L26.05,13.15z"/>
	</g>
	<g>
		<path class="st11" d="M29.15,12.29c0.15-0.02,0.64,0,0.41-0.22c-0.28-0.26-0.76-0.59-0.63-1.04c0,0.51,0.58,0.69,0.8,1.08
			C29.8,12.42,29.31,12.33,29.15,12.29L29.15,12.29z"/>
	</g>
	<g>
		<path class="st11" d="M21.95,12.65c0.05,0.1,0.13,0.24,0.25,0.15c0.11-0.06,0.17-0.17,0.26-0.27
			C22.38,12.81,22.02,13.11,21.95,12.65L21.95,12.65z"/>
	</g>
	<g>
		<path class="st11" d="M24.3,12.06c0.44,0.23,0.84-0.08,1.1-0.42C25.23,12.04,24.69,12.38,24.3,12.06L24.3,12.06z"/>
	</g>
	<g>
		<path class="st10" d="M22.71,12.47c0.14,0.24,0.43,0.28,0.66,0.15c0.23-0.11,0.42-0.29,0.62-0.46
			C23.74,12.54,23,13.09,22.71,12.47L22.71,12.47z"/>
	</g>
	<g>
		<path class="st10" d="M25.74,11.57c0.5,0.12,0.95-0.16,1.19-0.59C26.77,11.46,26.21,11.79,25.74,11.57L25.74,11.57z"/>
	</g>
	<g>
		<path class="st10" d="M31.59,12.45c-0.12-0.18-0.21-0.44-0.34-0.59c-0.18-0.14-0.35-0.36-0.37-0.6c0.08,0.21,0.25,0.39,0.43,0.53
			C31.47,11.99,31.53,12.21,31.59,12.45L31.59,12.45z"/>
	</g>
	<g>
		<path class="st11" d="M31.03,33.52c-0.01-0.47,0.04-0.93,0.15-1.39C31.19,32.6,31.14,33.06,31.03,33.52
			C31.03,33.52,31.14,33.06,31.03,33.52z"/>
	</g>
	<g>
		<path class="st11" d="M30.83,33.26c0.01-0.36,0.07-0.71,0.21-1.05C31.02,32.58,30.95,32.93,30.83,33.26
			C30.83,33.26,30.95,32.93,30.83,33.26z"/>
	</g>
	<g>
		<path class="st11" d="M30.66,32.74c-0.06-0.12-0.06-0.23,0-0.35C30.72,32.51,30.72,32.63,30.66,32.74
			C30.66,32.74,30.72,32.63,30.66,32.74z"/>
	</g>
	<line class="st14" x1="31.92" y1="31.04" x2="31.92" y2="30.77"/>
	<line class="st14" x1="32.26" y1="30.45" x2="32.26" y2="30.1"/>
	<g>
		<path class="st11" d="M28.54,38.71L28.5,38.5h0.09L28.54,38.71L28.54,38.71z M28.54,38.71L28.5,38.5h0.09L28.54,38.71L28.54,38.71
			z"/>
	</g>
	<g>
		<path class="st11" d="M28.7,38.56c-0.07-0.2-0.09-0.4-0.04-0.6C28.74,38.15,28.75,38.35,28.7,38.56
			C28.7,38.56,28.75,38.35,28.7,38.56z"/>
	</g>
	<g>
		<path class="st11" d="M28.93,37.19c-0.06-0.16-0.06-0.32,0-0.48C28.99,36.88,28.99,37.03,28.93,37.19
			C28.93,37.19,28.99,37.03,28.93,37.19z"/>
	</g>
	<g>
		<path class="st11" d="M29.08,37.01c-0.06-0.28-0.06-0.55,0-0.82C29.15,36.46,29.15,36.73,29.08,37.01
			C29.08,37.01,29.15,36.73,29.08,37.01z"/>
	</g>
	<g>
		<path class="st11" d="M29.29,37.01c-0.07-0.44-0.08-0.88-0.03-1.33C29.34,36.12,29.34,36.56,29.29,37.01
			C29.29,37.01,29.34,36.56,29.29,37.01z"/>
	</g>
	<g>
		<path class="st11" d="M29.52,37.01c-0.08-0.76-0.1-1.53-0.06-2.3C29.54,35.47,29.57,36.24,29.52,37.01
			C29.52,37.01,29.57,36.24,29.52,37.01z"/>
	</g>
	<g>
		<path class="st11" d="M29.76,37.42c-0.1-1.09-0.15-2.18-0.13-3.28C29.73,35.23,29.78,36.32,29.76,37.42
			C29.76,37.42,29.78,36.32,29.76,37.42z"/>
	</g>
	<g>
		<path class="st11" d="M29.96,37.15c-0.09-0.48-0.11-0.97-0.07-1.47C29.97,36.17,30,36.66,29.96,37.15
			C29.96,37.15,30,36.66,29.96,37.15z"/>
	</g>
	<g>
		<path class="st11" d="M30.11,36.42c-0.06-0.16-0.06-0.31,0-0.46C30.17,36.11,30.17,36.26,30.11,36.42
			C30.11,36.42,30.17,36.26,30.11,36.42z"/>
	</g>
	<g>
		<path class="st10" d="M30.44,35.34c-0.17-0.71-0.28-1.42-0.33-2.14C30.28,33.91,30.39,34.62,30.44,35.34
			C30.44,35.34,30.39,34.62,30.44,35.34z"/>
	</g>
	<g>
		<path class="st10" d="M30.52,35.15c-0.14-0.59-0.21-1.19-0.23-1.79C30.42,33.95,30.5,34.54,30.52,35.15
			C30.52,35.15,30.5,34.54,30.52,35.15z"/>
	</g>
	<g>
		<path class="st10" d="M30.66,34.52c-0.09-0.28-0.12-0.56-0.09-0.85C30.66,33.95,30.69,34.23,30.66,34.52
			C30.66,34.52,30.69,34.23,30.66,34.52z"/>
	</g>
	<g>
		<path class="st10" d="M30.29,35.34c-0.15-0.5-0.23-1.01-0.26-1.52C30.18,34.32,30.26,34.83,30.29,35.34
			C30.29,35.34,30.26,34.83,30.29,35.34z"/>
	</g>
	<g>
		<path class="st10" d="M29.93,39.66c-0.06-0.18-0.06-0.35-0.04-0.53C29.99,39.28,29.98,39.48,29.93,39.66L29.93,39.66z"/>
	</g>
	<g>
		<path class="st10" d="M29.69,38.71c0.25-0.17,0.16-0.56,0.23-0.83C29.99,38.12,30.02,38.66,29.69,38.71L29.69,38.71z"/>
	</g>
	<g>
		<path class="st10" d="M29.52,38.71c0.01-0.23,0.07-0.44,0.2-0.64C29.72,38.3,29.65,38.51,29.52,38.71
			C29.52,38.71,29.65,38.51,29.52,38.71z"/>
	</g>
	<g>
		<path class="st10" d="M29.38,38.6c-0.01-0.21,0.04-0.41,0.14-0.6C29.54,38.22,29.49,38.42,29.38,38.6
			C29.38,38.6,29.49,38.42,29.38,38.6z"/>
	</g>
	<g>
		<path class="st10" d="M29.27,38.5c-0.02-0.29,0.02-0.57,0.12-0.84C29.4,37.95,29.36,38.23,29.27,38.5
			C29.27,38.5,29.36,38.23,29.27,38.5z"/>
	</g>
	<g>
		<path class="st10" d="M29.08,38.39c-0.03-0.3,0-0.59,0.09-0.88C29.2,37.81,29.18,38.1,29.08,38.39
			C29.08,38.39,29.18,38.1,29.08,38.39z"/>
	</g>
	<g>
		<path class="st10" d="M26.51,44.14c0.35-0.93,0.72-1.84,1.11-2.75c0.53-0.41,1.16-0.79,1.84-0.76c-0.65,0.01-1.33,0.48-1.77,0.81
			C27.31,42.34,26.93,43.25,26.51,44.14L26.51,44.14z"/>
	</g>
	<g>
		<path class="st10" d="M26.66,43.51c0.18-0.71,0.43-1.4,0.73-2.07C27.2,42.15,26.96,42.84,26.66,43.51
			C26.66,43.51,26.96,42.84,26.66,43.51z"/>
	</g>
	<g>
		<path class="st10" d="M26.97,42.15c0.07-0.32,0.14-0.64,0.22-0.95l0.02-0.01c0.75-0.32,1.51-0.62,2.28-0.89
			c-0.74,0.35-1.49,0.66-2.25,0.96C27.23,41.41,27.03,41.89,26.97,42.15L26.97,42.15z"/>
	</g>
	<g>
		<path class="st10" d="M29.27,40.1c0.21-0.22,0.66-0.19,0.49,0.2C29.75,39.94,29.5,40.05,29.27,40.1L29.27,40.1z"/>
	</g>
	<g>
		<path class="st11" d="M27.3,40c0.39-0.31,0.91-0.48,1.24-0.85C28.31,39.59,27.75,39.8,27.3,40L27.3,40z"/>
	</g>
	<g>
		<path class="st11" d="M27.26,40.24c0.59-0.36,1.18-0.69,1.72-1.12C28.53,39.65,27.9,40,27.26,40.24L27.26,40.24z"/>
	</g>
	<g>
		<path class="st11" d="M27.26,40.49c0.6-0.41,1.56-0.84,2.06-1.26C28.78,39.82,27.98,40.15,27.26,40.49L27.26,40.49z"/>
	</g>
	<g>
		<path class="st11" d="M27.26,40.81c0.19-0.14,0.46-0.14,0.6-0.32C27.85,40.73,27.45,40.82,27.26,40.81L27.26,40.81z"/>
	</g>
	<g>
		<path class="st11" d="M28.12,40.24c0.3,0.05,0.48-0.13,0.66-0.35C28.74,40.18,28.38,40.43,28.12,40.24L28.12,40.24z"/>
	</g>
	<g>
		<path class="st11" d="M28.54,42.38c0.41-1.15,1.41-1.84,2.16-0.5l0.19,0.39C30.07,40.78,29.29,40.96,28.54,42.38L28.54,42.38z"/>
	</g>
	<g>
		<path class="st11" d="M28.54,42.82c0.3,1.03,0.99,1.14,1.72,0.41c0.2-0.18,0.37-0.38,0.56-0.58c-0.16,0.22-0.32,0.44-0.51,0.63
			C29.59,44.07,28.73,43.94,28.54,42.82L28.54,42.82z"/>
	</g>
	<g>
		<path class="st11" d="M28.7,42.45c0.35-0.91,1.28-1.67,1.87-0.46l0.14,0.35C30.04,40.96,29.37,41.34,28.7,42.45L28.7,42.45z"/>
	</g>
	<g>
		<path class="st11" d="M28.7,42.72c0.26,0.8,0.83,0.97,1.45,0.39c0.17-0.14,0.32-0.3,0.48-0.46c-0.13,0.18-0.27,0.36-0.43,0.51
			C29.58,43.8,28.86,43.61,28.7,42.72L28.7,42.72z"/>
	</g>
	<g>
		<path class="st11" d="M28.93,42.47c0.26-0.71,0.98-1.19,1.45-0.34l0.12,0.25C29.96,41.45,29.43,41.65,28.93,42.47L28.93,42.47z"/>
	</g>
	<g>
		<path class="st11" d="M30.38,42.64c-0.31,0.46-1.18,0.99-1.3,0.1C29.32,43.52,29.99,42.96,30.38,42.64L30.38,42.64z"/>
	</g>
	<g>
		<path class="st11" d="M29.38,42.45c0.03-0.38,0.37-0.71,0.71-0.39c0.25,0.28,0.23,0.3-0.05,0.05
			C29.73,41.86,29.5,42.16,29.38,42.45L29.38,42.45z"/>
	</g>
	<g>
		<path class="st11" d="M29.32,42.72c0.19,0.11,0.4,0.05,0.55-0.09c0.07-0.05,0.17-0.15,0.13-0.18c-0.07-0.05-0.18-0.06-0.28-0.07
			c0.1-0.02,0.21-0.05,0.32,0.01c0.07,0.04,0.05,0.14,0,0.19C29.89,42.8,29.52,42.95,29.32,42.72L29.32,42.72z"/>
	</g>
	<g>
		<path class="st11" d="M31.51,42.59c0.55-0.32,0.62,0.2,0.41,0.6c-0.05,0.11-0.12,0.21-0.18,0.32c0.07-0.23,0.17-0.45,0.2-0.68
			C32.01,42.52,31.73,42.52,31.51,42.59L31.51,42.59z"/>
	</g>
	<g>
		<path class="st11" d="M31.32,42.8c0.53-0.59,0.46,0.37,0.28,0.7c0.01-0.21,0.05-0.41,0.05-0.6C31.68,42.6,31.49,42.68,31.32,42.8
			L31.32,42.8z"/>
	</g>
	<g>
		<path class="st11" d="M31.42,43.41c-0.1,0.06-0.21,0.06-0.3,0C31.21,43.35,31.32,43.35,31.42,43.41
			C31.42,43.41,31.32,43.35,31.42,43.41z"/>
	</g>
	<g>
		<path class="st11" d="M31.27,43.19c0-0.1,0.06-0.16,0.15-0.17C31.41,43.11,31.36,43.17,31.27,43.19
			C31.27,43.19,31.36,43.17,31.27,43.19z"/>
	</g>
	<path class="st15" d="M32.26,43.24"/>
	<g>
		<path class="st10" d="M32.32,43.01c0.45-0.02,1.13-0.07,1.46-0.03c0.28-0.28,0.79-0.36,1.01,0.03c-0.26-0.34-0.7-0.23-0.96,0.04
			C33.32,43.06,32.82,43.05,32.32,43.01L32.32,43.01z"/>
	</g>
	<g>
		<path class="st10" d="M32.32,43.12c0.52-0.01,1.23-0.01,1.64,0.04c0.28-0.21,0.73-0.21,0.83,0.19C34.65,43,34.26,43.04,34,43.24
			C33.44,43.22,32.88,43.19,32.32,43.12L32.32,43.12z"/>
	</g>
	<g>
		<path class="st10" d="M32.44,43.35c0.51-0.02,1.13-0.02,1.59,0.02c0.28-0.1,0.8-0.12,0.76,0.3c-0.01-0.39-0.48-0.31-0.74-0.22
			C33.51,43.45,32.98,43.42,32.44,43.35L32.44,43.35z"/>
	</g>
	<g>
		<path class="st10" d="M32.79,43.61c0.16-0.06,0.32-0.06,0.48,0C33.1,43.67,32.94,43.67,32.79,43.61
			C32.79,43.61,32.94,43.67,32.79,43.61z"/>
	</g>
	<g>
		<path class="st10" d="M30.9,43.61c0.35,0.13,0.7,0.27,1.04,0.41l-0.06,0.02c0.13-0.36,0.46-0.47,0.69-0.13
			c0.17,0.23,0.25,0.51,0.34,0.78c-0.12-0.25-0.23-0.51-0.4-0.73c-0.23-0.32-0.46-0.14-0.57,0.16
			C31.59,43.96,31.24,43.79,30.9,43.61L30.9,43.61z"/>
	</g>
	<g>
		<path class="st10" d="M32.1,44.2c0.16-0.48,0.55,0.11,0.56,0.36C32.52,44.4,32.34,43.87,32.1,44.2L32.1,44.2z"/>
	</g>
	<g>
		<path class="st10" d="M31.85,44.2c0.21,0.13,0.35,0.35,0.58,0.41C32.18,44.67,31.96,44.41,31.85,44.2L31.85,44.2z"/>
	</g>
	<path class="st16" d="M29.68,45.18c0,0,0.14,1.39,0.09,1.51"/>
	<g>
		<path class="st17" d="M32.09,10.71c0.04,0.29-0.15,0.88-0.57,0.66c-0.43-0.25-0.75-1.12-0.16-1.34c-0.14,0.15-0.16,0.33-0.12,0.49
			c0.06,0.21,0.22,0.48,0.4,0.63C31.83,11.27,31.99,10.87,32.09,10.71L32.09,10.71z"/>
	</g>
	<g>
		<path class="st17" d="M22.2,11.02c0.09,0.02,0.2,0,0.2-0.08l0.06,0.01c0,0.07,0.01,0.14,0.02,0.2c0,0.06,0.06,0.13,0.03,0.1
			c0.12-0.12,0.22-0.4,0.3-0.55c0.05,0.21,0.05,0.53,0.18,0.7c0.03,0.01-0.01,0.01,0.02,0c0.21-0.19,0.35-0.62,0.49-0.88
			c0.06,0.27,0.07,0.69,0.24,0.91c0.01,0-0.01,0.01,0.03-0.01c0.21-0.2,0.31-0.56,0.45-0.83c0.42,0.51,0.85,0.41,1.18-0.13
			c-0.18,0.59-0.75,0.83-1.23,0.39l0.18-0.04c-0.12,0.29-0.31,1.08-0.77,0.83c-0.2-0.19-0.23-0.43-0.27-0.67L23.57,11
			c-0.28,0.69-0.82,0.98-0.88,0l0.17,0.03c-0.1,0.14-0.13,0.26-0.31,0.34c-0.21-0.01-0.14-0.29-0.14-0.43l0.06,0.01
			C22.43,11.07,22.29,11.06,22.2,11.02L22.2,11.02z"/>
	</g>
	<g>
		<path class="st17" d="M21.46,12.61c0.06,0.24,0.22,0.25,0.36,0.07c0.04-0.05,0.02-0.03,0.03,0.01c0.12,0.6,0.45,0.38,0.7-0.01
			l0.07-0.1l0.04,0.12c0.34,0.77,1.13-0.2,1.44-0.54l0.1,0.09c0.52,0.38,1.1-0.17,1.4-0.6c0.59,0.39,1.22-0.02,1.44-0.62
			c-0.05,0.14-0.12,0.28-0.2,0.41c-0.25,0.42-0.81,0.58-1.26,0.35l0.09-0.02c-0.32,0.55-1.01,1.13-1.65,0.69c0,0,0.2-0.02,0.18-0.01
			c-0.39,0.42-1.38,1.22-1.68,0.29l0.12,0.02c-0.31,0.42-0.75,0.62-0.85-0.06l0.03,0.01C21.69,12.88,21.49,12.87,21.46,12.61
			L21.46,12.61z"/>
	</g>
	<g>
		<path class="st17" d="M27.69,11.39c0.18,0.07,0.26-0.13,0.3-0.27c0.06-0.25,0.07-0.6,0.1-0.86c0.18,0.31,0.52,0.99,0.85,0.41
			c-0.02,0.08-0.05,0.16-0.11,0.23c-0.21,0.25-0.57,0.03-0.76-0.15l0.24-0.06C28.23,10.92,28.05,11.57,27.69,11.39L27.69,11.39z"/>
	</g>
	<g>
		<path class="st17" d="M30.28,10.47c-0.09,0.3,0.02,0.5,0.16,0.75c0.14,0.26,0.25,0.53,0.29,0.84
			C30.38,11.69,29.73,10.9,30.28,10.47L30.28,10.47z"/>
	</g>
	<g>
		<path class="st17" d="M30.74,11.12c0.07,0.29,0.16,0.44,0.38,0.64c0.18,0.22,0.32,0.46,0.38,0.75
			C31.12,12.17,30.43,11.68,30.74,11.12L30.74,11.12z"/>
	</g>
	<g>
		<path class="st17" d="M19.93,13.89c0.3-0.47,0.71-0.8,1.24-0.97C20.87,13.39,20.45,13.71,19.93,13.89L19.93,13.89z"/>
	</g>
	<g>
		<path class="st17" d="M19.93,14.06c-0.01,0.07-0.05,0.24-0.02,0.3c0.01,0.02,0.01,0,0,0c0.05-0.02,0.11-0.05,0.16-0.09
			c0.36-0.41,0.97-0.94,1.53-1.25c-0.39,0.55-0.88,1.01-1.4,1.42c-0.06,0.04-0.12,0.06-0.2,0.07C19.66,14.55,19.79,14.2,19.93,14.06
			L19.93,14.06z"/>
	</g>
	<g>
		<path class="st17" d="M20.23,14.47c0.04,0.33,0.09,0.47,0.3,0.31c0.4-0.55,0.85-1.07,1.37-1.48c-0.33,0.62-0.74,1.13-1.2,1.62
			C20.29,15.22,20.06,14.89,20.23,14.47L20.23,14.47z"/>
	</g>
	<g>
		<path class="st17" d="M20.62,14.98c-0.15,0.79,0.03,0.92,0.71,0.48c0.25-0.51,0.97-1.49,1.38-2.16c-0.12,0.43-0.32,0.83-0.52,1.21
			c-0.23,0.39-0.45,0.81-0.73,1.16C20.68,16.16,20.16,15.87,20.62,14.98L20.62,14.98z"/>
	</g>
	<g>
		<path class="st17" d="M21.46,15.69c0.28,0.83,0.95-0.05,1.24-0.4c0.11-0.51,0.47-1.54,0.77-2.19c-0.11,0.79-0.31,1.55-0.54,2.31
			C22.63,15.88,21.56,16.74,21.46,15.69L21.46,15.69z"/>
	</g>
	<g>
		<path class="st17" d="M22.97,15.24c0.69-0.02,1.25-0.58,1.38-1.13c0.05-0.51,0.12-1.02,0.25-1.53c0.05,0.52,0.04,1.04,0.01,1.54
			C24.48,14.88,23.72,15.46,22.97,15.24L22.97,15.24z"/>
	</g>
	<g>
		<path class="st17" d="M24.66,14.02c0.44-0.06,0.91-0.37,0.94-0.71c-0.03-0.47-0.05-0.94,0.02-1.42c0.14,0.47,0.21,0.95,0.25,1.43
			C25.8,13.89,25.17,14.17,24.66,14.02L24.66,14.02z"/>
	</g>
	<g>
		<path class="st17" d="M25.93,13.3c0.39-0.15,0.91-0.26,1.18-0.56l-0.01,0.13c-0.47-1.25-0.31-1.33,0.25-0.1l0.03,0.07
			C27.07,13.3,26.44,13.37,25.93,13.3L25.93,13.3z"/>
	</g>
	<g>
		<path class="st17" d="M27.34,12.54c0.5,0.16,1.02,0.13,1.3-0.35l0.01,0.14c-0.21-0.31-0.41-0.63-0.56-0.99
			c0.29,0.25,0.54,0.53,0.77,0.83l0.05,0.07C28.61,12.89,27.85,13.02,27.34,12.54L27.34,12.54z"/>
	</g>
	<g>
		<path class="st17" d="M28.89,12.33c0.41,0.17,0.87,0.14,1.19-0.18l-0.01,0.18c-0.38-0.42-0.75-0.86-1.04-1.36
			c0.51,0.37,0.92,0.83,1.33,1.29C29.96,12.68,29.3,12.75,28.89,12.33L28.89,12.33z"/>
	</g>
	<g>
		<path class="st17" d="M30.45,12.25c0.02,0.13,0.08,0.27,0.13,0.26c0.02,0,0.11,0,0.13,0.01c0.32,0.05,0.63,0.12,0.91,0.31
			c-0.33,0.07-0.63,0.02-0.93-0.05l-0.09-0.03C30.31,12.7,30.35,12.38,30.45,12.25L30.45,12.25z"/>
	</g>
	<g>
		<path class="st17" d="M23.31,15.57c-0.6,0.85-1.3,1.79-1.36,2.86l-0.1-0.02c0.64-0.99,1.34-2.16,2.51-2.56l0.23-0.05l-0.13,0.2
			c-0.46,0.69-0.86,1.43-1.2,2.18c-0.3,0.72-0.64,1.57-0.44,2.34l-0.16-0.08c1.21-0.5,2.21-1.46,3.04-2.46
			c0.84-1.01,1.51-2.22,2.05-3.41l0.1-0.21l0.12,0.19c0.51,0.79,1.3,1.92,2.08,2.16c1.09-0.42,2.1-1.13,2.86-2.02l0.11-0.13
			c0.07,0.79,0.16,1.59,0.43,2.35c0.17,0.55,0.57,0.99,1.18,0.96c0.18,0.01,0.39-0.09,0.4-0.29c0,0.21-0.22,0.31-0.4,0.31
			c-0.63,0.05-1.06-0.4-1.25-0.95c-0.28-0.7-0.41-1.44-0.49-2.19l0.13,0.04c-0.78,0.94-1.79,1.68-2.92,2.14
			c-0.32-0.03-0.57-0.2-0.79-0.38c-0.62-0.53-1.1-1.19-1.54-1.87l0.21-0.02c-1.1,2.44-2.69,4.91-5.24,6.01l-0.12,0.05l-0.04-0.13
			c-0.23-0.88,0.13-1.72,0.46-2.51c0.35-0.77,0.78-1.5,1.25-2.2l0.1,0.15c-1.12,0.36-1.82,1.5-2.46,2.42l-0.1,0.16
			C21.84,17.44,22.65,16.46,23.31,15.57L23.31,15.57z"/>
	</g>
	<g>
		<path class="st17" d="M21.9,18.42c-0.28,0.94-0.71,1.89-0.97,2.83l-0.24-0.09c0.31-0.43,0.62-0.86,0.95-1.28
			c0.3-0.35,0.7-0.9,1.08-1.17c-0.18,0.19-0.32,0.42-0.46,0.64c-0.54,0.81-1.17,1.7-1.71,2.5C20.74,20.62,21.32,19.52,21.9,18.42
			L21.9,18.42z"/>
	</g>
	<g>
		<path class="st17" d="M21.76,20.13c-0.02,0.69-0.17,1.73-0.08,2.4c0,0.02,0.01,0,0,0.02l-0.12-0.02c0.99-0.44,1.93-1.1,2.58-1.98
			c0.22-0.3,0.39-0.62,0.53-0.97c-0.08,0.36-0.21,0.73-0.41,1.06c-0.6,1.01-1.61,1.74-2.7,2.16c-0.07-0.08-0.12-0.18-0.13-0.28
			C21.39,21.7,21.58,20.9,21.76,20.13L21.76,20.13z"/>
	</g>
	<g>
		<path class="st17" d="M26.31,17.69c0.97,1.02,1.98,2.06,2.56,3.36l-0.21-0.04c1.23-1.54,2.71-3.19,3.81-4.82
			c0.06-0.12,0.15-0.23,0.14-0.37c-0.03,0.53-0.47,1.01-0.73,1.46c-0.53,0.8-1.38,1.88-1.97,2.63c-0.38,0.49-0.79,0.96-1.19,1.43
			C28.21,19.98,27.17,18.85,26.31,17.69L26.31,17.69z"/>
	</g>
	<g>
		<path class="st17" d="M31.13,18.46c0.48,0.66,1,1.3,1.31,2.06c0.01,0.05,0-0.03-0.03-0.06c-0.05-0.04-0.09-0.03-0.11-0.03
			c0.79-0.76,1.54-1.59,2.27-2.42c-0.46,0.87-1.11,1.6-1.77,2.32c-0.13,0.12-0.25,0.28-0.42,0.35c-0.09,0.03-0.18-0.05-0.19-0.13
			C31.88,19.84,31.46,19.17,31.13,18.46L31.13,18.46z"/>
	</g>
	<g>
		<path class="st17" d="M24.26,20.79c0.21,0.92,0.37,1.84,0.52,2.78l-0.13-0.1c0.77-0.08,1.57-0.21,2.34,0
			c0.48-0.11,0.86-0.74,1.2-1.12c0.27-0.37,0.54-0.74,0.8-1.11c-0.2,0.41-0.42,0.82-0.67,1.2c-0.34,0.46-0.64,1.07-1.24,1.27
			c-0.14,0.02-0.25-0.04-0.38-0.06c-0.7-0.08-1.43-0.01-2.13,0.06C24.43,22.75,24.33,21.77,24.26,20.79L24.26,20.79z"/>
	</g>
	<g>
		<path class="st17" d="M28.87,21.86c0.1,0.34,0.29,0.77,0.66,0.83c0.19,0,0.48,0.08,0.6,0.28c0.14,0.2,0.18,0.41,0.18,0.64
			l-0.18-0.13c0.43-0.18,0.85-0.47,1.15-0.83c0.33-0.37,0.51-0.83,0.58-1.32c0.13,1.07-0.68,2.02-1.65,2.39l-0.18,0.07
			c0.02-0.41-0.03-0.89-0.55-0.92C29.04,22.76,28.89,22.26,28.87,21.86L28.87,21.86z"/>
	</g>
	<g>
		<path class="st17" d="M31.13,18.88c0.68,1.58,1.27,3.19,1.84,4.81l-0.19-0.07c1.12-0.83,1.96-2.01,2.69-3.19
			c-0.58,1.3-1.4,2.53-2.55,3.41l-0.14,0.1C32.19,22.27,31.62,20.59,31.13,18.88L31.13,18.88z"/>
	</g>
	<g>
		<path class="st17" d="M20.67,21.5c-0.16,1.22-0.59,2.56-0.25,3.76l-0.23-0.01c0.56-0.87,1.09-1.79,1.82-2.53
			c-0.27,0.36-0.58,0.94-0.81,1.32c-0.3,0.52-0.62,1.03-0.91,1.55c-0.22-0.38-0.29-0.83-0.26-1.24
			C20.09,23.38,20.33,22.42,20.67,21.5L20.67,21.5z"/>
	</g>
	<g>
		<path class="st17" d="M20.57,25.2c0.13,0.62,0.25,1.23,0.35,1.85c0.11,0.51,0.23,1.34,0.36,1.82l-0.21-0.02
			c0.29-0.44,0.58-0.87,0.88-1.3c0.9-1.22,1.8-2.67,2.88-3.71c-0.58,0.68-1.26,1.82-1.79,2.56c-0.51,0.75-1.4,2.05-1.91,2.8
			C20.77,27.9,20.7,26.53,20.57,25.2L20.57,25.2z"/>
	</g>
	<g>
		<path class="st17" d="M21.3,29.13c0.07,0.42,0.07,0.9,0.28,1.28c0.08,0.16,0.07,0.3,0.09,0.46c0.03,0.49,0.08,1.43,0.01,1.73
			c0.27,0.33,0.51,0.7,0.84,0.98c0-0.02-0.1,0.05-0.11,0.05c2.33-3.39,4.58-6.92,7.56-9.78c-2.74,3.02-5.05,6.65-7.41,9.97
			c-0.07,0-0.15-0.02-0.2-0.07c-0.32-0.3-0.56-0.68-0.82-1.03c-0.02-0.02-0.02-0.02-0.02-0.06c0.02-0.71,0.12-1.48-0.01-2.18
			C21.3,30.04,21.33,29.58,21.3,29.13L21.3,29.13z"/>
	</g>
	<g>
		<path class="st17" d="M23.52,32.47c1.48,3.14,4.33-0.36,5.42-2.02c1.44-2.04,2.68-4.22,3.91-6.4c-1.04,2.28-2.26,4.49-3.69,6.56
			C28.03,32.33,24.9,35.89,23.52,32.47L23.52,32.47z"/>
	</g>
	<g>
		<path class="st17" d="M26.31,33.68c-0.38,0.78-0.83,2.31,0.56,2.16l0.41-0.07l-0.06,0.03c1.92-2.1,4.04-4.1,5.44-6.6
			c-0.51,1.35-1.46,2.49-2.36,3.59c-0.94,1.11-1.92,2.22-2.98,3.2C25.44,36.34,25.55,34.91,26.31,33.68L26.31,33.68z"/>
	</g>
	<g>
		<path class="st17" d="M26.17,36.27c0.02,0.73-0.31,3.62,0.89,3.34c0.39-0.07,0.76-0.37,1.01-0.69l-0.02,0.05
			c0.47-1.73,0.95-3.62,1.57-5.3c-0.41,1.73-0.86,3.63-1.31,5.36c-0.34,0.48-0.96,0.92-1.59,0.8C25.64,39.6,26.07,37.1,26.17,36.27
			L26.17,36.27z"/>
	</g>
	<g>
		<path class="st17" d="M15.56,19.16c0.23-0.55,0.67-1.15,0.66-1.75v0l0,0l0,0c-0.03,0,0.24,0,0.12,0
			c-0.13,1.08-0.38,2.78,0.87,3.27l-0.13,0.05c0.21-0.31,0.38-0.68,0.51-1.04c0.41-1.11,0.58-2.29,0.6-3.47l0.01-0.63
			c0.39,1.01,0.9,2.46,2.16,2.54l-0.07,0.07c0.1-0.49,0.18-1.04,0.52-1.41c0-0.38-0.25-0.73-0.42-1.07c0.21,0.33,0.49,0.67,0.5,1.08
			c-0.01,0.03-0.02,0.07-0.05,0.1c-0.29,0.35-0.3,0.89-0.39,1.33l-0.01,0.07c-1.15,0.05-1.86-1.08-2.24-2.03l0.23-0.04
			c-0.01,1.63-0.27,3.34-1.21,4.72c-1.47-0.43-1.23-2.42-1.01-3.53c-0.11,0,0.15,0,0.12,0C16.31,18.05,15.84,18.6,15.56,19.16
			L15.56,19.16z"/>
	</g>
	<g>
		<path class="st17" d="M14.92,21.7c0.25,0.49,0.44,1.02,0.77,1.44c0.11,0.13,0.23,0.2,0.34,0.16l-0.07,0.08
			c0.12-0.37,0.25-0.74,0.43-1.11c-0.03,0.42-0.11,0.83-0.2,1.24C15.32,23.82,14.98,22.31,14.92,21.7L14.92,21.7z"/>
	</g>
	<g>
		<path class="st17" d="M16.39,20.34c0.01,0.74-0.09,1.63,0.41,2.22c0.36,0.22,0.86,0.42,1.26,0.57l-0.13,0.04
			c0.21-0.25,0.4-0.54,0.56-0.83c0.16-0.3,0.29-0.61,0.37-0.95c0,0.71-0.32,1.38-0.74,1.94l-0.05,0.06l-0.08-0.02
			c-0.51-0.16-0.92-0.32-1.37-0.62C16.05,22.1,16.22,21.12,16.39,20.34L16.39,20.34z"/>
	</g>
	<g>
		<path class="st17" d="M18.21,18.73c0.16,0.52,0.25,1.16,0.62,1.57c0.16,0.7,0.33,1.41,0.65,2.05c0.11,0.2,0.25,0.39,0.41,0.45
			l-0.18,0.13c0.04-1.54,0.09-3.14,0.23-4.67c0.09,1.6,0.06,3.27,0.05,4.88c-0.37-0.11-0.58-0.37-0.72-0.66
			c-0.32-0.67-0.48-1.38-0.58-2.11C18.42,20.16,18.26,19.22,18.21,18.73L18.21,18.73z"/>
	</g>
	<g>
		<path class="st17" d="M20.22,22.03c-0.17-1.18-0.24-2.37-0.31-3.56l0.27-0.01C20.22,19.63,20.26,20.85,20.22,22.03L20.22,22.03z
			 M20.22,22.03c-0.16-1.17-0.24-2.39-0.31-3.56l0.27-0.01C20.22,19.64,20.26,20.83,20.22,22.03L20.22,22.03z"/>
	</g>
	<g>
		<path class="st17" d="M15.27,33.23c0.28,0.25,0.69,0.7,1.08,0.62l-0.05,0.12c-0.53-1.29-0.97-2.63-1.24-4
			c-0.09-0.46-0.15-0.92-0.15-1.39c0.3,1.58,1.07,3.77,1.55,5.33l0.03,0.09C15.96,34.17,15.55,33.6,15.27,33.23L15.27,33.23z"/>
	</g>
	<g>
		<path class="st17" d="M16.32,33.23c0.45,0.35,0.92,0.87,1.48,1l-0.06,0.09c-0.24-0.86-0.47-1.72-0.68-2.58
			c-0.58-2.59-1.31-5.22-1.27-7.9c0.25,3.06,1.47,7.39,2.08,10.44l0.02,0.09c-0.22,0.01-0.41-0.09-0.55-0.2
			C16.97,33.9,16.64,33.57,16.32,33.23L16.32,33.23z"/>
	</g>
	<g>
		<path class="st17" d="M18.03,34.47c0.45,0.2,0.92,0.49,1.42,0.55l-0.05,0.04c0.08-0.24,0.17-0.48,0.26-0.72
			c0.09-0.23,0.18-0.51,0.31-0.72l-0.02,0.08c-0.25-0.83-0.45-1.66-0.66-2.49c-0.6-2.5-1.08-5.05-1.26-7.62
			c0.39,2.44,0.96,5.14,1.51,7.56c0.19,0.85,0.41,1.7,0.61,2.54c-0.07,0.1-0.13,0.23-0.19,0.36c-0.11,0.25-0.36,0.83-0.46,1.09
			C18.94,35.08,18.49,34.74,18.03,34.47L18.03,34.47z"/>
	</g>
	<g>
		<path class="st17" d="M20.22,33.51c0.25-0.35,0.53-0.79,0.85-1.02c0.03-0.08,0.05-0.19,0.06-0.28c0.06-0.5,0.05-1.23,0.06-1.62
			c-0.46-1.87-0.91-3.73-1.24-5.63c-0.08-0.55-0.24-1.12-0.16-1.68c0-0.04,0.01-0.08,0.02-0.12c0.02-0.02,0,0.02,0,0.03l-0.02,0.06
			l0.01-0.06l0-0.03c0.03-0.09,0.02,0.1,0.02,0.12c-0.04,0.44,0.22,1.2,0.3,1.64c0.43,1.81,0.9,3.8,1.3,5.61
			c-0.01,0.57-0.06,1.13-0.14,1.7c-0.03,0.12-0.03,0.26-0.12,0.36C20.79,32.8,20.52,33.2,20.22,33.51L20.22,33.51z"/>
	</g>
	<g>
		<path class="st17" d="M25.06,43.12c0.56,0.25,0.38-2.42,0.44-2.81c0.07-0.42,0.18-0.85,0.35-1.24c0.06-0.13,0.12-0.26,0.23-0.35
			c-0.07,0.12-0.11,0.25-0.14,0.39c-0.24,0.94-0.14,1.8-0.24,2.76C25.68,42.14,25.51,43.42,25.06,43.12L25.06,43.12z"/>
	</g>
	<g>
		<path class="st17" d="M16.59,34.3c0.83,2.37,1.75,4.72,2.78,7.02c0.79,1.7,1.58,3.43,2.76,4.89c0.5,0.63,1.5,1.43,2.1,0.48
			c0.45-0.8,0.37-1.79,0.3-2.69c-0.12-1.24-0.39-2.47-0.68-3.7c-0.61-2.44-1.36-4.85-2.21-7.21c0.94,2.34,1.77,4.72,2.41,7.16
			c0.32,1.22,0.59,2.46,0.72,3.72c0.07,0.94,0.16,1.99-0.32,2.86c-0.72,1.13-1.9,0.33-2.51-0.46c-1.2-1.49-2-3.24-2.76-4.97
			C18.18,39.08,17.34,36.71,16.59,34.3L16.59,34.3z"/>
	</g>
	<g>
		<path class="st17" d="M16.25,34.3l-0.58,0.8l0-0.02c0.11,0.72,0.03,1.71-0.39,2.22c-0.47,1.44-1.04,3.21-1.5,4.48
			c0.05,1,0.11,2.06,0.46,2.99c0.09,0.22,0.22,0.44,0.41,0.5c0.71,0.14,1.35-0.55,1.86-0.99c-0.09,0.17,1.04-2.3,1.01-2.26
			l1.06-2.28c-0.46,1.17-1.41,3.51-1.9,4.66c-2.79,2.88-3.08-0.29-3.15-2.67c0.52-1.5,1.05-3,1.6-4.49c0.46-0.6,0.54-1.43,0.49-2.17
			C15.63,35.07,16.24,34.31,16.25,34.3L16.25,34.3z"/>
	</g>
	<g>
		<path class="st17" d="M14.56,45.57c0.13,1.13,0.38,4.52,2,4.28l-0.1,0.1c0.44-2.71,0.95-5.55,1.54-8.23
			c-0.35,2.75-0.81,5.62-1.3,8.36C14.7,50.46,14.58,46.9,14.56,45.57L14.56,45.57z"/>
	</g>
	<g>
		<path class="st17" d="M16.59,50.29c1.17,1.59,2.52,2.03,3.55,0.05c-0.2-2.06-0.28-5-0.31-7.32c0.26,2.42,0.43,4.97,0.55,7.41
			C19.27,52.52,17.69,52.16,16.59,50.29L16.59,50.29z"/>
	</g>
	<g>
		<path class="st17" d="M20.44,50c1.14-0.57,2-1.47,2.59-2.6C22.81,48.67,21.72,49.8,20.44,50L20.44,50z"/>
	</g>
	<g>
		<path class="st17" d="M16.47,54.15c-0.03-1,0.12-1.97,0.45-2.91C16.95,52.24,16.8,53.21,16.47,54.15L16.47,54.15z"/>
	</g>
	<g>
		<path class="st17" d="M21.36,55.08c-0.61-1.33-1.17-2.86-0.92-4.34C20.57,52.23,21.1,53.61,21.36,55.08L21.36,55.08z"/>
	</g>
	<g>
		<path class="st17" d="M24.85,55.48c-0.08-2.65-0.35-5.3-1.18-7.83C24.85,50.05,25.13,52.84,24.85,55.48L24.85,55.48z"/>
	</g>
	<g>
		<path class="st17" d="M25.58,54.5l-1.46-7.23C24.96,49.58,25.45,52.04,25.58,54.5L25.58,54.5z"/>
	</g>
	<g>
		<path class="st17" d="M32.15,30.5c0.19,0.16,0.21,0.39,0,0.55C31.98,30.85,31.97,30.68,32.15,30.5L32.15,30.5z"/>
	</g>
	<g>
		<path class="st17" d="M31.54,31.28c0.08,0.67,0.01,1.32-0.18,1.96c-0.07,0.2-0.13,0.44-0.33,0.58c0.07-0.09,0.07-0.2,0.08-0.3
			C31.21,32.76,31.28,32.01,31.54,31.28L31.54,31.28z"/>
	</g>
	<g>
		<path class="st17" d="M30.44,32.58c0.33,0.4,0.32,0.8,0.44,1.24c-0.14-0.02-0.21-0.15-0.26-0.24
			C30.45,33.27,30.37,32.94,30.44,32.58L30.44,32.58z"/>
	</g>
	<g>
		<path class="st17" d="M29.8,33.52c0.16,0.68,0.1,1.43,0.39,2.03c0.3-0.08,0.46-0.45,0.59-0.77c0,0.29-0.05,0.6-0.27,0.84
			C29.57,36.46,29.68,33.98,29.8,33.52L29.8,33.52z"/>
	</g>
	<g>
		<path class="st17" d="M28.37,38.96c0.58-0.15,0.42-0.87,0.32-1.31l0.02-0.04c0.15-0.33,0.51-0.59,0.88-0.47
			c0.05,0.2,0.09,0.4,0.13,0.6l-0.15-0.07c0.13-0.07,0.27-0.15,0.38-0.25c0.12-0.09,0.22-0.22,0.26-0.37
			c0.02,0.39-0.34,0.68-0.64,0.87c-0.08-0.21-0.14-0.43-0.21-0.64l0.1,0.09c-0.23-0.04-0.41,0.16-0.51,0.34l0.01-0.08
			C29.06,38.11,29.04,39,28.37,38.96L28.37,38.96z"/>
	</g>
	<g>
		<path class="st17" d="M29.08,38.5c0.37,0.16,0.46,0.45,0.88,0.4C29.73,39.38,29.06,38.91,29.08,38.5L29.08,38.5z"/>
	</g>
	<g>
		<path class="st17" d="M25.18,45.01c0.33-0.26,0.67-0.51,1.02-0.75l-0.05,0.06c0.26-1.5,0.58-2.97,1.06-4.42
			c-0.17,1.52-0.49,2.99-0.87,4.46l-0.01,0.05C25.95,44.61,25.57,44.82,25.18,45.01L25.18,45.01z"/>
	</g>
	<g>
		<path class="st17" d="M27.14,40.93c0.36-0.06,0.85-0.15,0.92-0.54c0.15,0.04,0.32,0.04,0.47-0.05c0.27-0.14,0.35-0.48,0.62-0.64
			c0.15-0.09,0.35-0.11,0.48-0.01c-0.34-0.05-0.49,0.23-0.62,0.49c-0.16,0.32-0.51,0.56-0.89,0.48l0.15-0.08
			C28.06,41.02,27.53,41.04,27.14,40.93L27.14,40.93z"/>
	</g>
	<g>
		<path class="st17" d="M29.63,39.12c0.28,0.27,0.19,0.46,0.26,0.7c-0.09,0.04-0.18-0.04-0.22-0.09
			C29.54,39.55,29.51,39.34,29.63,39.12L29.63,39.12z"/>
	</g>
	<g>
		<path class="st17" d="M25.26,45.53c1.2-0.25,2.43-0.42,3.64-0.61c0.11-0.02,0.14,0,0.21-0.1c0.12-0.16,0.25-0.41,0.54-0.5
			c0.29-0.07,0.53,0.09,0.71,0.22l-0.06-0.02c0.48-0.02,0.97-0.04,1.46-0.03c-0.48,0.09-0.96,0.16-1.45,0.22l-0.03,0
			c-0.18-0.12-0.41-0.22-0.57-0.17c-0.24,0.05-0.32,0.44-0.57,0.58C27.86,45.4,26.55,45.47,25.26,45.53L25.26,45.53z"/>
	</g>
	<g>
		<path class="st17" d="M26.31,44.57c0.41-0.9,0.91-1.74,1.43-2.57c0.23-0.68,1.19-1.26,2.01-1.18c-0.74,0.15-1.51,0.57-1.78,1.31
			C27.47,42.96,26.93,43.79,26.31,44.57L26.31,44.57z"/>
	</g>
	<g>
		<path class="st17" d="M28.9,41.21c-0.42,0.61-0.72,1.37-0.42,2.07c0.18,0.42,0.53,0.81,1.02,0.62c0.69-0.26,1.21-0.87,1.71-1.42
			c-0.25,0.45-0.56,0.88-0.95,1.23c-1.1,1.09-2.23,0.23-2.11-1.14C28.23,42.02,28.53,41.56,28.9,41.21L28.9,41.21z"/>
	</g>
	<g>
		<path class="st17" d="M29.27,43.16c0.36-0.33,0.62-0.55,1.02-0.83C30.23,42.81,29.75,43.2,29.27,43.16L29.27,43.16z"/>
	</g>
	<g>
		<path class="st17" d="M30.56,43.65c0.39,0.12,0.78,0.21,1.12,0.46c0.05,0.18,0.14,0.38,0.28,0.49c0.14,0.11,0.3,0.12,0.48,0.08
			c0.62-0.12,0.63,0.66,0.51,1.06l-0.21-0.13c0.52-0.55,0.19-1.51-0.34-1.94c-0.2-0.15-0.49-0.05-0.65,0.15
			c-0.33-0.11-0.66-0.2-0.99-0.32c0.33,0.05,0.65,0.12,0.98,0.17l-0.07,0.02c0.49-0.62,1.14-0.09,1.38,0.45
			c0.28,0.51,0.31,1.21-0.14,1.65l-0.33,0.32c0.07-0.3,0.21-0.7,0.17-0.99c-0.03-0.18-0.1-0.25-0.28-0.22
			c-0.2,0.05-0.48,0-0.65-0.16c-0.17-0.16-0.25-0.37-0.29-0.58l0.02,0.04C31.32,43.99,30.86,43.8,30.56,43.65L30.56,43.65z"/>
	</g>
	<g>
		<path class="st17" d="M32.99,43.83c0.24-0.12,0.49-0.21,0.74-0.28l0.14,0.09c0.01,0,0.11,0.07,0.21,0.06
			c0.58-0.07,0.67,0.48,0.53,0.91c-0.07-0.21-0.1-0.62-0.35-0.64c-0.22,0.01-0.52,0.02-0.62-0.26l0.14,0.09
			C33.53,43.83,33.26,43.85,32.99,43.83L32.99,43.83z"/>
	</g>
	<g>
		<path class="st17" d="M31.6,43.51c-0.3-0.28,0.06-0.8,0.43-0.76C31.87,43.08,31.73,43.16,31.6,43.51L31.6,43.51z"/>
	</g>
	<g>
		<path class="st17" d="M22.7,34.14c0.65,0.85,1.2,1.77,1.72,2.7c0.47,0.95,1.06,1.9,1.16,2.98c-0.31-1.01-0.9-1.91-1.39-2.85
			C23.74,36.14,23.1,34.99,22.7,34.14L22.7,34.14z"/>
	</g>
	<g>
		<path class="st12" d="M32.16,12.35"/>
	</g>
	<g>
		<path class="st17" d="M23.66,46.76c-2.09-3.37-3.34-7.24-4.26-11.08C20.65,39.39,21.92,43.26,23.66,46.76L23.66,46.76z"/>
	</g>
	<g>
		<path class="st17" d="M14.23,43.67c0.42-2.3,1.62-4.41,2.87-6.36C16.17,39.45,15.01,41.47,14.23,43.67L14.23,43.67z"/>
	</g>
	<g>
		<path class="st17" d="M29.63,46.87c-0.07-0.57-0.02-1.19-0.23-1.71c-0.02-0.06-0.06-0.11-0.05-0.23c0.01-0.07,0.09-0.14,0.14-0.14
			c0.2-0.04,0.36,0.06,0.52,0.13c0,0.6,0,1.22-0.21,1.79C29.78,46.78,29.72,46.89,29.63,46.87L29.63,46.87z M29.63,46.87
			c0.15-0.05,0.12-0.29,0.14-0.42c0.02-0.32-0.01-1.11-0.01-1.45l0.07,0.12c-0.08-0.04-0.2-0.08-0.26-0.08c0,0,0.04-0.02,0.04-0.05
			C29.86,45.56,29.74,46.27,29.63,46.87L29.63,46.87z"/>
	</g>
	<g>
		<path class="st17" d="M30.29,44.62c0.37,0,0.23,0.6-0.07,0.35c0.03-0.06,0.09-0.14,0.03-0.14C30.25,44.82,30.25,44.74,30.29,44.62
			L30.29,44.62z"/>
	</g>
	<rect x="43.84" y="36.42" class="st18" width="11.81" height="20.17"/>
	<rect x="-5.96" y="20.9" class="st18" width="9.79" height="35.14"/>
	<polygon class="st19" points="43.69,35.76 43.69,57.79 56.67,57.62 56.8,35.76 	"/>
	<polygon class="st19" points="3.84,56.04 3.84,30.85 3.84,19.23 -9.39,19.23 -9.94,41.67 -9.98,57.04 	"/>
	<polygon class="st19" points="2.98,20.54 4.98,20.69 5.02,26.46 4.75,30.79 4.49,34.01 2.59,34.09 1.91,27.7 	"/>
</g>
</svg>
