<svg width="419" height="382" viewBox="0 0 419 382" fill="none" xmlns="http://www.w3.org/2000/svg">
<path d="M338.088 81.7579C338.179 81.9634 338.133 82.3285 338.042 82.5568L337.905 82.9904L337.609 83.8806C336.673 86.8705 334.482 93.0559 333.409 96.1371C307.892 165.522 275.641 233.355 230.632 292.333C190.279 344.395 125.002 402.139 54.7726 374.659C11.4069 357.541 -16.3929 326.501 12.2742 281.012C63.4686 200.626 247.271 115.971 338.088 81.7579ZM337.609 82.2601C336.992 82.8535 335.44 83.4469 334.596 83.8349L331.241 85.3641C280.069 108.759 228.624 133.842 179.506 161.209C128.791 190.218 76.912 220.026 35.5091 261.726C16.9988 281.126 -4.09069 310.113 11.0188 337.091C24.6905 360.234 57.6713 376.462 84.0331 378.973C177.543 387.395 249.12 259.945 287.921 188.917C305.655 155.229 321.7 120.559 336.148 85.3185L336.833 83.6067L337.175 82.7394L337.335 82.3057C337.357 82.2601 337.403 82.1003 337.403 82.1688C337.426 82.2144 337.517 82.2829 337.609 82.2601Z" fill="#539DD6"/>
<path d="M337.426 82.4426C332.039 56.3547 327.794 27.8246 326.813 0.75528C334.459 10.387 342.014 20.384 350.162 29.5364C370.064 51.3791 391.816 71.4871 411.307 93.7177L418.406 101.683C391.131 96.8446 363.948 90.0887 337.426 82.4426ZM337.928 81.9862C361.848 84.7935 385.767 87.9661 409.299 92.5994L405.875 98.6249C392.797 83.9034 379.947 68.9764 367.691 53.5245C355.525 37.9585 342.151 23.5109 327.84 9.90773L332.062 8.01334C336.239 32.8688 337.221 56.3091 337.928 81.9862Z" fill="#539DD6"/>
<path d="M63.3772 296.555C66.1618 299.385 67.7138 302.695 67.7594 306.484C67.6453 308.287 66.8693 310.227 67.0062 312.007C67.0747 313.787 67.7823 315.454 68.7181 317.074C70.6124 320.224 71.7765 323.602 72.3927 327.14C72.7579 330.86 72.5068 334.466 71.0461 338.141L70.3614 338.255C67.691 335.356 66.1618 332.07 65.1803 328.463C64.4956 324.926 64.3587 321.365 65.0206 317.759C65.3401 315.91 65.3857 314.107 64.8151 312.418C64.2902 310.729 62.8979 309.2 62.1447 307.534C61.3915 305.89 61.3459 304.11 61.3687 302.307C61.46 300.504 61.7567 298.655 62.6925 296.692C62.7153 296.669 63.3772 296.555 63.3772 296.555Z" fill="#539DD6"/>
<path d="M42.5618 318.9C47.2407 316.115 52.2848 314.769 57.58 314.837C60.1819 315.02 62.8295 315.864 65.3858 315.796C67.965 315.773 70.4756 315.157 72.9406 314.244C77.8478 312.418 82.8919 311.414 88.0273 310.912C93.1627 310.706 98.321 310.98 103.639 312.646L103.707 313.331C96.4494 317.234 89.0087 318.717 81.0888 318.558C75.999 318.854 70.6582 316.914 65.5913 317.987C60.4787 319.448 56.0964 321.822 50.4817 321.091C47.9026 320.931 45.2778 320.589 42.6074 319.562L42.5618 318.9Z" fill="#539DD6"/>
</svg>
