<svg width="460" height="460" viewBox="0 0 460 460" fill="none" xmlns="http://www.w3.org/2000/svg">
<g clip-path="url(#clip0_100_57)">
<path d="M336.545 348.109C336.354 348.194 336.013 348.152 335.8 348.067L335.395 347.939L334.565 347.662C331.775 346.789 326.004 344.744 323.129 343.743C258.388 319.934 195.095 289.843 140.066 247.846C91.5102 210.173 37.6305 149.266 63.2713 83.7583C79.2435 43.2954 108.206 17.3565 150.65 44.1046C225.634 91.8722 304.622 263.371 336.545 348.109ZM336.077 347.662C335.523 347.087 334.969 345.639 334.607 344.851L333.18 341.72C311.352 293.974 287.947 245.972 262.413 200.143C235.345 152.822 207.532 104.416 168.624 65.7842C150.522 48.513 123.476 28.8352 98.3037 42.9333C76.7092 55.6898 61.5676 86.463 59.225 111.06C51.3666 198.311 170.285 265.096 236.559 301.3C267.993 317.847 300.342 332.818 333.223 346.299L334.82 346.938L335.63 347.257L336.034 347.406C336.077 347.428 336.226 347.47 336.162 347.47C336.119 347.492 336.055 347.577 336.077 347.662Z" fill="#ADC3A3"/>
<path d="M335.906 347.47C360.248 342.444 386.868 338.483 412.126 337.568C403.139 344.702 393.811 351.751 385.271 359.354C364.891 377.924 346.129 398.219 325.386 416.406L317.954 423.03C322.468 397.602 328.772 372.238 335.906 347.47ZM336.332 347.96C333.713 370.279 330.753 392.597 326.43 414.554L320.807 411.359C334.543 399.156 348.471 387.167 362.889 375.731C377.413 364.38 390.893 351.9 403.586 338.547L405.354 342.487C382.183 346.363 360.291 347.3 336.332 347.96Z" fill="#ADC3A3"/>
<path d="M92.575 103.99C82.6296 94.0444 82.6296 77.7954 92.575 67.85L100.944 59.4805C110.89 49.5352 127.139 49.5352 137.084 59.4805C147.03 69.4259 147.03 85.675 137.084 95.6204L128.715 103.99C118.791 113.914 102.52 113.914 92.575 103.99Z" stroke="#ADC3A3" stroke-width="0.9012" stroke-miterlimit="10"/>
<path d="M104.863 53.6241L84.3973 74.0898C79.5844 78.9028 79.5844 86.7824 84.3973 91.5954C89.2103 96.4083 97.0899 96.4083 101.903 91.5954L122.369 71.1296C127.182 66.3167 127.182 58.437 122.369 53.6241C117.556 48.8111 109.676 48.8111 104.863 53.6241Z" fill="#ADC3A3" stroke="#ADC3A3" stroke-miterlimit="10"/>
</g>
<defs>
<clipPath id="clip0_100_57">
<rect width="460" height="460" fill="white"/>
</clipPath>
</defs>
</svg>
