<?xml version="1.0" encoding="utf-8"?>
<!-- Generator: Adobe Illustrator 26.5.1, SVG Export Plug-In . SVG Version: 6.00 Build 0)  -->
<svg version="1.1" xmlns="http://www.w3.org/2000/svg" xmlns:xlink="http://www.w3.org/1999/xlink" x="0px" y="0px"
	 viewBox="0 0 98.95 53.1" style="enable-background:new 0 0 98.95 53.1;" xml:space="preserve">
<style type="text/css">
	.st0{stroke:#000000;stroke-width:0.3589;stroke-miterlimit:10;}
	.st1{fill:#FFFFFF;stroke:#FFFFFF;stroke-width:0.2268;stroke-miterlimit:10;}
	.st2{fill:#FFFFFF;}
</style>
<g id="Layer_3">
	<rect x="-21.26" y="-39.48" class="st0" width="138.35" height="137.64"/>
</g>
<g id="Layer_2">
	<g>
		<rect x="40.62" y="23.48" class="st1" width="12.78" height="12.78"/>
		<g>
			<path class="st2" d="M50.21,27.46C56.86,26.23,63.15,22,65.9,15.7c0,0,0.13-0.27,0.13-0.27l-0.01,0.3
				c-0.09,7.4-0.39,20.49,4.38,26.36c1.39-0.33,2.91-0.69,4.25-1.29c0.44-0.21,0.91-0.43,1.2-0.84c-1.41,1.38-3.63,1.64-5.47,2.14
				c-2.95-3.52-3.44-8.4-4.04-12.79c-0.48-4.51-0.59-9.05-0.45-13.59c-1.5,4.57-6.18,8.49-10.74,10.43
				c-1.58,0.67-3.21,1.2-4.91,1.51C50.24,27.66,50.21,27.46,50.21,27.46L50.21,27.46z"/>
		</g>
		<g>
			<path class="st2" d="M53.01,33.07c5.6-2.66,6.06-16.76,6.4-22.38c0,0,0.1,0.4,0.1,0.4c1.22,4.9,2.73,9.76,4.7,14.41
				c1.63,3.47,5,11.68,9.93,9.36c0,0,2.17-3.25,2.17-3.25l-2.16,3.25c-2.47,1.43-4.97-0.74-6.36-2.69
				c-4.31-6.28-6.42-13.78-8.39-21.06c0,0,0.12-0.01,0.12-0.01c-0.44,6.83-0.54,14.23-4.18,20.25c-0.57,0.81-1.26,1.62-2.3,1.92
				L53.01,33.07L53.01,33.07z"/>
		</g>
		<g>
			<path class="st2" d="M48.88,29.46c6.36-0.28,23.41-0.79,26.57-6.9c0,0,0.07-0.17,0.07-0.17c0.13,2.36,0.4,4.72,0.88,7.04
				c0.55,2.12,0.99,4.79,3.03,5.99c1.43-0.19,2.94-0.47,4.3-1.03c0.45-0.19,0.9-0.42,1.27-0.74c-1.58,1.21-3.66,1.5-5.58,1.8
				c-1.07-0.52-1.64-1.64-2.09-2.68c-1.25-3.24-1.64-6.74-1.89-10.19c-1.43,3.78-8.71,5.05-12.43,5.78
				c-4.67,0.79-9.4,1.17-14.13,1.3C48.88,29.67,48.88,29.46,48.88,29.46L48.88,29.46z"/>
		</g>
		<g>
			<path class="st2" d="M52.02,35.05c7.67-5.71,18.12-14.14,19.93-23.97c0.45,7.93,1.01,15.92,2.75,23.68
				c0.61,1.99,1.35,6.53,3.95,6.56c0,0,1.17,0.09,1.17,0.09s4.66,0.34,4.66,0.34l-4.66-0.33c-0.68-0.1-1.7,0.03-2.29-0.37
				c-4.32-3.81-5.18-23.21-5.67-29.47c0,0,0.11,0.01,0.11,0.01c-0.45,2.61-1.66,5-3.06,7.21c-2.85,4.41-6.64,8.14-10.59,11.57
				c-1.99,1.71-4.04,3.34-6.19,4.86L52.02,35.05L52.02,35.05z"/>
		</g>
		<g>
			<path class="st2" d="M42.92,25.95c-6.28-4.97-9.08-13.11-10.23-20.79c0,0,0.13-0.01,0.13-0.01c0.26,3.49,0.38,6.99,0.38,10.49
				c0,3.5-0.13,7-0.54,10.48c-0.5,3.39-0.94,7.12-3.18,9.86c-1.18,1.53-3.19,1.25-4.88,1.07c-1.68-0.26-3.62-0.21-5.04-1.23
				c1.42,1.01,3.36,0.96,5.04,1.22c1.69,0.18,3.68,0.45,4.86-1.07c2.23-2.74,2.65-6.46,3.14-9.85c0.4-3.47,0.52-6.97,0.51-10.47
				c-0.01-3.5-0.15-6.99-0.42-10.48l0.13-0.01c0.86,5.8,2.68,11.63,6.16,16.41c1.16,1.57,2.48,3.08,4.05,4.23L42.92,25.95
				L42.92,25.95z"/>
		</g>
		<g>
			<path class="st2" d="M42.4,27.64c-7.97-1.82-17.27-5.16-20.67-13.27c0,0,0.12-0.05,0.12-0.05c1.85,4.44,3.5,8.97,4.78,13.61
				c0.75,3.32,3.35,11.75-0.76,13.46c-3.72-2.01-8.05-4.58-9.19-8.94c1.15,4.35,5.49,6.9,9.21,8.9c4-1.8,1.43-10.05,0.66-13.4
				c-1.29-4.63-2.95-9.16-4.82-13.58c0,0,0.12-0.05,0.12-0.05c2.41,6.06,8.63,9.36,14.46,11.44c2,0.69,4.04,1.28,6.12,1.67
				C42.43,27.44,42.4,27.64,42.4,27.64L42.4,27.64z"/>
		</g>
		<g>
			<path class="st2" d="M45,26.68c0.02-0.03-14.39-8.42-14-8.42c-0.96,3.2-3.67,14.17-7.12,14.76c-1.95-0.71-3.9-1.46-5.7-2.49
				c-0.57-0.36-1.23-0.72-1.51-1.37c0.29,0.64,0.94,1,1.52,1.36c1.79,1.02,3.78,1.77,5.69,2.46c3.41-0.63,6.06-11.54,7-14.75
				c0,0,0.02-0.08,0.02-0.08s0.07,0.04,0.07,0.04l14.14,8.31C45.11,26.5,45,26.68,45,26.68L45,26.68z"/>
		</g>
		<g>
			<path class="st2" d="M40.6,36.04c-6.31-6.47-12.22-15.24-10.73-24.7c0,0,0.12,0.02,0.12,0.02c-0.5,3.13-1.1,6.24-1.77,9.33
				c-1.45,6.12-2.79,12.46-6.02,17.93c-0.84,1.26-2.01,2.73-3.7,2.6c-1.58-0.17-3.11-0.64-4.54-1.31c2.03,0.78,4.79,2.16,6.7,0.5
				c2.83-2.8,3.9-6.87,5.14-10.55c1.81-6.06,3.07-12.28,4.08-18.52c0,0,0.12,0.02,0.12,0.02c-1.18,6.99,2.11,13.81,6.2,19.29
				c1.39,1.85,2.89,3.63,4.55,5.24C40.74,35.89,40.6,36.04,40.6,36.04L40.6,36.04z"/>
		</g>
	</g>
</g>
</svg>
