<svg width="211" height="530" viewBox="0 0 211 530" fill="none" xmlns="http://www.w3.org/2000/svg">
<path d="M1 191.434L210 79.8192V112.726L96.6064 172.318V235.902L193.102 277.257V346.628L106.389 404.436L117.062 375.087L182.43 339.957V286.596L87.2681 254.134V181.665V177.225L78.8191 181.665V436.009L57.9191 472.472V192.649L1 222.562V191.434Z" fill="#191D26"/>
<path d="M57.9191 192.649L1 222.562V191.434L210 79.8192V112.726L96.6064 172.318M57.9191 192.649V472.472L78.8191 436.009V181.665M57.9191 192.649L78.8191 181.665M78.8191 181.665L87.2681 177.225M96.6064 172.318V235.902L193.102 277.257V346.628L106.389 404.436L117.062 375.087L182.43 339.957V286.596L87.2681 254.134V181.665V177.225M96.6064 172.318L87.2681 177.225" stroke="#191D26"/>
<path d="M104.166 241.238V168.311L94.383 171.868L92.1596 237.236L104.166 241.238Z" fill="#191D26"/>
<path d="M176.204 350.63V282.594H186.432L188.211 344.404L176.204 350.63Z" fill="#191D26"/>
<path d="M104.166 241.238V168.311L94.383 171.868L92.1596 237.236L104.166 241.238Z" stroke="#191D26"/>
<path d="M176.204 350.63V282.594H186.432L188.211 344.404L176.204 350.63Z" stroke="#191D26"/>
<path d="M117.062 243.462V96.717L127.734 70.0362V248.353L117.062 244.351V243.462Z" fill="#68AE88" stroke="#68AE88"/>
<path d="M126.845 267.919L116.617 264.362V480.921L126.845 471.138V267.919Z" fill="#68AE88" stroke="#68AE88"/>
<path d="M145.521 359.079V2L155.749 19.7872V353.743L145.521 359.079Z" fill="#A4D7A0" stroke="#A4D7A0"/>
<path d="M157.083 371.085L145.966 378.645V507.602L157.083 527.613V371.085Z" fill="#A4D7A0" stroke="#A4D7A0"/>
<path d="M88.88 318.64L87.188 324.112H92.84L91.148 318.64C91.052 318.424 90.944 318.268 90.824 318.172C90.728 318.076 90.608 318.028 90.464 318.028H89.564C89.42 318.028 89.288 318.076 89.168 318.172C89.072 318.268 88.976 318.424 88.88 318.64ZM86.828 335.704C86.828 336.16 86.72 336.496 86.504 336.712C86.312 336.904 85.988 337 85.532 337H80.24C79.784 337 79.448 336.904 79.232 336.712C79.04 336.496 78.944 336.16 78.944 335.704V326.2C78.944 325.48 79.052 324.652 79.268 323.716C79.508 322.78 79.868 321.688 80.348 320.44L83.48 312.268C83.624 311.86 83.84 311.56 84.128 311.368C84.44 311.176 84.836 311.08 85.316 311.08H95C95.456 311.08 95.828 311.176 96.116 311.368C96.428 311.56 96.656 311.86 96.8 312.268L99.932 320.44C100.412 321.688 100.76 322.78 100.976 323.716C101.216 324.652 101.336 325.48 101.336 326.2V335.704C101.336 336.16 101.228 336.496 101.012 336.712C100.82 336.904 100.496 337 100.04 337H94.604C94.124 337 93.764 336.904 93.524 336.712C93.308 336.496 93.2 336.16 93.2 335.704V330.664H86.828V335.704Z" fill="#DADADA"/>
<path d="M112.477 337H107.077C106.621 337 106.285 336.904 106.069 336.712C105.877 336.496 105.781 336.16 105.781 335.704V312.376C105.781 311.92 105.877 311.596 106.069 311.404C106.285 311.188 106.621 311.08 107.077 311.08H110.821C111.277 311.08 111.661 311.152 111.973 311.296C112.309 311.44 112.633 311.692 112.945 312.052L119.929 320.044V312.376C119.929 311.92 120.025 311.596 120.217 311.404C120.433 311.188 120.769 311.08 121.225 311.08H126.625C127.081 311.08 127.405 311.188 127.597 311.404C127.813 311.596 127.921 311.92 127.921 312.376V335.704C127.921 336.16 127.813 336.496 127.597 336.712C127.405 336.904 127.081 337 126.625 337H121.225C120.769 337 120.433 336.904 120.217 336.712C120.025 336.496 119.929 336.16 119.929 335.704V331.276L113.773 323.824V335.704C113.773 336.16 113.665 336.496 113.449 336.712C113.257 336.904 112.933 337 112.477 337Z" fill="#DADADA"/>
<path d="M148.222 337H138.862C138.406 337 138.022 336.916 137.71 336.748C137.422 336.58 137.194 336.268 137.026 335.812L133.498 326.992C133.282 326.464 133.102 326.008 132.958 325.624C132.814 325.216 132.694 324.832 132.598 324.472C132.502 324.112 132.43 323.74 132.382 323.356C132.358 322.948 132.346 322.456 132.346 321.88V312.376C132.346 311.92 132.442 311.596 132.634 311.404C132.85 311.188 133.186 311.08 133.642 311.08H139.366C139.822 311.08 140.17 311.188 140.41 311.404C140.65 311.596 140.77 311.92 140.77 312.376V322.312C140.77 322.552 140.794 322.792 140.842 323.032C140.89 323.272 140.962 323.524 141.058 323.788L142.75 328.828C142.822 329.068 142.906 329.236 143.002 329.332C143.098 329.404 143.242 329.44 143.434 329.44H143.83C144.022 329.44 144.166 329.404 144.262 329.332C144.358 329.236 144.442 329.068 144.514 328.828L146.206 323.752C146.302 323.488 146.374 323.236 146.422 322.996C146.47 322.756 146.494 322.516 146.494 322.276V312.376C146.494 311.92 146.59 311.596 146.782 311.404C146.998 311.188 147.334 311.08 147.79 311.08H153.442C153.898 311.08 154.222 311.188 154.414 311.404C154.63 311.596 154.738 311.92 154.738 312.376V321.88C154.738 322.456 154.714 322.948 154.666 323.356C154.642 323.74 154.582 324.112 154.486 324.472C154.39 324.832 154.27 325.216 154.126 325.624C153.982 326.008 153.802 326.464 153.586 326.992L150.058 335.812C149.89 336.268 149.65 336.58 149.338 336.748C149.05 336.916 148.678 337 148.222 337Z" fill="#DADADA"/>
<path d="M159.903 337C159.447 337 159.111 336.904 158.895 336.712C158.703 336.496 158.607 336.16 158.607 335.704V331.42C158.607 330.964 158.703 330.64 158.895 330.448C159.111 330.232 159.447 330.124 159.903 330.124H163.467V318.028H159.903C159.447 318.028 159.111 317.932 158.895 317.74C158.703 317.524 158.607 317.188 158.607 316.732V312.376C158.607 311.92 158.703 311.596 158.895 311.404C159.111 311.188 159.447 311.08 159.903 311.08H175.239C175.695 311.08 176.019 311.188 176.211 311.404C176.427 311.596 176.535 311.92 176.535 312.376V316.732C176.535 317.188 176.427 317.524 176.211 317.74C176.019 317.932 175.695 318.028 175.239 318.028H171.747V330.124H175.239C175.695 330.124 176.019 330.232 176.211 330.448C176.427 330.64 176.535 330.964 176.535 331.42V335.704C176.535 336.16 176.427 336.496 176.211 336.712C176.019 336.904 175.695 337 175.239 337H159.903Z" fill="#DADADA"/>
<path d="M105.204 215C104.748 215 104.412 214.904 104.196 214.712C104.004 214.496 103.908 214.16 103.908 213.704V209.42C103.908 208.964 104.004 208.64 104.196 208.448C104.412 208.232 104.748 208.124 105.204 208.124H108.768V196.028H105.204C104.748 196.028 104.412 195.932 104.196 195.74C104.004 195.524 103.908 195.188 103.908 194.732V190.376C103.908 189.92 104.004 189.596 104.196 189.404C104.412 189.188 104.748 189.08 105.204 189.08H120.54C120.996 189.08 121.32 189.188 121.512 189.404C121.728 189.596 121.836 189.92 121.836 190.376V194.732C121.836 195.188 121.728 195.524 121.512 195.74C121.32 195.932 120.996 196.028 120.54 196.028H117.048V208.124H120.54C120.996 208.124 121.32 208.232 121.512 208.448C121.728 208.64 121.836 208.964 121.836 209.42V213.704C121.836 214.16 121.728 214.496 121.512 214.712C121.32 214.904 120.996 215 120.54 215H105.204Z" fill="#DADADA"/>
<path d="M132.977 215H127.577C127.121 215 126.785 214.904 126.569 214.712C126.377 214.496 126.281 214.16 126.281 213.704V190.376C126.281 189.92 126.377 189.596 126.569 189.404C126.785 189.188 127.121 189.08 127.577 189.08H131.321C131.777 189.08 132.161 189.152 132.473 189.296C132.809 189.44 133.133 189.692 133.445 190.052L140.429 198.044V190.376C140.429 189.92 140.525 189.596 140.717 189.404C140.933 189.188 141.269 189.08 141.725 189.08H147.125C147.581 189.08 147.905 189.188 148.097 189.404C148.313 189.596 148.421 189.92 148.421 190.376V213.704C148.421 214.16 148.313 214.496 148.097 214.712C147.905 214.904 147.581 215 147.125 215H141.725C141.269 215 140.933 214.904 140.717 214.712C140.525 214.496 140.429 214.16 140.429 213.704V209.276L134.273 201.824V213.704C134.273 214.16 134.165 214.496 133.949 214.712C133.757 214.904 133.433 215 132.977 215Z" fill="#DADADA"/>
<path d="M173.186 215H161.846C158.846 215 156.614 214.4 155.15 213.2C153.71 212 152.99 210.152 152.99 207.656V196.424C152.99 193.928 153.71 192.08 155.15 190.88C156.614 189.68 158.846 189.08 161.846 189.08H170.846C171.302 189.08 171.626 189.188 171.818 189.404C172.034 189.596 172.142 189.92 172.142 190.376V194.732C172.142 195.188 172.034 195.524 171.818 195.74C171.626 195.932 171.302 196.028 170.846 196.028H163.358C162.614 196.028 162.062 196.184 161.702 196.496C161.342 196.784 161.162 197.228 161.162 197.828V206.432C161.162 207.032 161.294 207.476 161.558 207.764C161.846 208.052 162.266 208.196 162.818 208.196H166.31V202.58C166.31 202.124 166.406 201.8 166.598 201.608C166.814 201.392 167.15 201.284 167.606 201.284H173.186C173.642 201.284 173.966 201.392 174.158 201.608C174.374 201.8 174.482 202.124 174.482 202.58V213.704C174.482 214.16 174.374 214.496 174.158 214.712C173.966 214.904 173.642 215 173.186 215Z" fill="#DADADA"/>
<path d="M185.751 215H180.171C179.715 215 179.379 214.904 179.163 214.712C178.971 214.496 178.875 214.16 178.875 213.704V190.376C178.875 189.92 178.971 189.596 179.163 189.404C179.379 189.188 179.715 189.08 180.171 189.08H185.751C186.207 189.08 186.531 189.188 186.723 189.404C186.939 189.596 187.047 189.92 187.047 190.376V198.188H193.059V190.376C193.059 189.92 193.155 189.596 193.347 189.404C193.563 189.188 193.899 189.08 194.355 189.08H199.935C200.391 189.08 200.715 189.188 200.907 189.404C201.123 189.596 201.231 189.92 201.231 190.376V213.704C201.231 214.16 201.123 214.496 200.907 214.712C200.715 214.904 200.391 215 199.935 215H194.355C193.899 215 193.563 214.904 193.347 214.712C193.155 214.496 193.059 214.16 193.059 213.704V205.712H187.047V213.704C187.047 214.16 186.939 214.496 186.723 214.712C186.531 214.904 186.207 215 185.751 215Z" fill="#DADADA"/>
</svg>
