<svg width="549" height="549" viewBox="0 0 549 549" fill="none" xmlns="http://www.w3.org/2000/svg">
<path d="M428.83 133.361C428.932 133.59 428.881 133.997 428.779 134.251L428.627 134.734L428.296 135.725C427.254 139.055 424.814 145.943 423.619 149.374C395.204 226.64 359.29 302.179 309.168 367.855C264.232 425.831 191.54 490.135 113.333 459.533C65.0412 440.471 34.0837 405.904 66.007 355.249C123.017 265.731 327.697 171.461 428.83 133.361ZM428.296 133.92C427.61 134.581 425.882 135.242 424.941 135.674L421.205 137.377C364.221 163.429 306.932 191.362 252.235 221.837C195.759 254.141 137.987 287.335 91.8812 333.772C71.2683 355.376 47.7833 387.655 64.6091 417.697C79.8337 443.47 116.561 461.541 145.917 464.337C250.049 473.716 329.756 331.789 372.964 252.693C392.713 215.178 410.581 176.57 426.669 137.326L427.432 135.42L427.813 134.454L427.991 133.971C428.017 133.92 428.067 133.743 428.067 133.819C428.093 133.87 428.194 133.946 428.296 133.92Z" fill="#DF512C"/>
<path d="M428.093 134.124C422.095 105.073 417.367 73.3017 416.274 43.1575C424.789 53.8833 433.202 65.0158 442.275 75.2079C464.439 99.5317 488.661 121.924 510.367 146.68L518.271 155.55C487.898 150.162 457.627 142.638 428.093 134.124ZM428.652 133.615C455.289 136.742 481.925 140.275 508.13 145.434L504.317 152.144C489.754 135.75 475.444 119.128 461.795 101.921C448.248 84.5867 433.354 68.4979 417.418 53.3496L422.12 51.24C426.771 78.9188 427.864 105.022 428.652 133.615Z" fill="#DF512C"/>
<path d="M122.915 372.558C126.016 375.709 127.744 379.395 127.795 383.614C127.668 385.622 126.804 387.782 126.956 389.765C127.032 391.747 127.82 393.603 128.862 395.407C130.972 398.915 132.268 402.676 132.955 406.616C133.361 410.759 133.082 414.775 131.455 418.867L130.692 418.994C127.719 415.766 126.016 412.106 124.923 408.09C124.16 404.15 124.008 400.185 124.745 396.17C125.101 394.111 125.152 392.103 124.516 390.222C123.932 388.341 122.381 386.638 121.542 384.783C120.704 382.953 120.653 380.97 120.678 378.963C120.78 376.955 121.11 374.896 122.152 372.71C122.178 372.685 122.915 372.558 122.915 372.558Z" fill="#DF512C"/>
<path d="M99.7351 397.44C104.946 394.34 110.563 392.84 116.459 392.916C119.357 393.12 122.305 394.06 125.152 393.984C128.024 393.958 130.82 393.272 133.565 392.255C139.029 390.222 144.646 389.104 150.365 388.545C156.084 388.316 161.828 388.621 167.75 390.476L167.826 391.239C159.744 395.585 151.458 397.237 142.638 397.059C136.971 397.39 131.023 395.229 125.381 396.424C119.687 398.05 114.807 400.694 108.555 399.88C105.683 399.703 102.76 399.321 99.7859 398.178L99.7351 397.44Z" fill="#DF512C"/>
</svg>
