<svg width="452" height="485" viewBox="0 0 452 485" fill="none" xmlns="http://www.w3.org/2000/svg">
<path d="M47.5599 118.645C77.7312 44.5046 167.876 103.548 210.14 134.429C260.877 172.147 304.964 218.329 349.002 263.774C377.819 293.74 407.596 325.613 434.959 357.003L438.875 361.527L432.94 361.425C328.756 358.095 210.362 343.532 118.148 290.767C87.2136 272.162 57.6088 246.033 45.2939 210.374L45.9836 210.094C49.5302 218.583 54.0621 226.59 59.3575 233.96C121.055 317.581 282.625 341.676 379.444 352.148C397.276 353.927 415.182 355.274 433.014 356.088L430.994 360.51C364.691 278.465 290.137 202.8 206.249 140.02C175.141 117.196 120.39 78.8934 81.2778 88.7805C66.0814 92.288 54.8502 104.691 48.2249 118.975L47.5599 118.645Z" fill="#539DD6"/>
<path d="M432.373 358.451C457.249 343.582 485.007 329.07 512.37 318.496C505.129 329.959 497.445 341.447 490.868 353.292C475.278 381.987 462.101 412.055 445.993 440.471L440.255 450.79C435.944 420.265 433.58 389.18 432.373 358.451ZM433.038 358.807C438.309 385.062 443.21 411.445 446.51 437.929L439.171 436.43C449.786 417.418 460.697 398.61 472.322 380.208C484.095 361.882 494.341 342.667 503.405 322.766L506.779 326.579C482.741 339.745 459.072 349.047 433.038 358.807Z" fill="#539DD6"/>
<path d="M47.0919 116.612L117.853 178.73L44.6289 212.305" stroke="#539DD6" stroke-miterlimit="10"/>
<path d="M49.0868 119.128L38.8409 158.346L37.8557 157.787L61.4755 131.455L38.7177 158.6L37.1907 160.405L37.7325 158.041L46.6977 118.492L49.0868 119.128Z" fill="#539DD6"/>
<path d="M64.3326 131.633L41.8704 176.9L40.6882 175.96L76.5489 143.197L77.4602 142.359L77.0415 143.528L71.8693 158.041L71.6722 157.812L88.1495 153.186L71.7708 158.142C71.3767 158.27 71.4752 158.27 71.5737 157.914L76.475 143.299L76.9676 143.63L41.698 177.129L38.7424 179.95L40.5158 176.188L62.1406 130.489L64.3326 131.633Z" fill="#539DD6"/>
<path d="M90.7109 155.347L86.179 169.936L85.2923 169.351L94.9225 162.006C94.1836 162.692 85.1446 171.003 84.7505 171.385C84.849 170.876 88.1247 155.677 88.3218 154.711C88.3218 154.66 90.7109 155.347 90.7109 155.347Z" fill="#539DD6"/>
<path d="M98.6909 163.023L91.0311 175.477L90.243 174.536L104.971 168.97L90.7356 175.756L89.0361 176.57L89.9228 174.816L96.5728 161.752L98.6909 163.023Z" fill="#539DD6"/>
<path d="M107.656 171.385L100.711 179.238L100.07 177.968L116.35 177.535C115.587 177.637 98.5924 179.696 98.4446 179.721C99.0111 178.959 104.996 170.749 105.735 169.758C105.76 169.758 107.656 171.385 107.656 171.385Z" fill="#539DD6"/>
<path d="M54.9981 206.968L31.8708 181.577L32.8314 180.84L47.1905 210.069L31.7723 181.424L29.7527 177.688L32.7329 180.713L56.7714 205.189L54.9981 206.968Z" fill="#539DD6"/>
<path d="M56.5003 205.214L47.1657 182.822L46.0574 180.204L48.1755 181.983L69.4063 200.08L47.3627 183.076L48.3726 182.237L58.7416 204.147L56.5003 205.214Z" fill="#539DD6"/>
<path d="M71.0565 199.14L57.4364 174.918L55.6138 171.664L58.4215 174.003L82.7556 194.488L57.6088 175.095L58.5693 174.206L73.1747 197.818L71.0565 199.14Z" fill="#539DD6"/>
<path d="M83.322 192.557L77.0907 173.393L76.1548 170.546L78.199 172.655L95.1196 190.117L77.2631 173.672L78.3468 172.91L85.6372 191.667L83.322 192.557Z" fill="#539DD6"/>
<path d="M96.0308 187.626C95.021 185.821 91.3758 179.34 90.4153 177.662L92.7305 179.111L102.459 185.135L92.0901 180.407L93.0014 179.365L98.0751 186.253L96.0308 187.626Z" fill="#539DD6"/>
<path d="M125.784 110.308C116.153 114.96 104.577 115.519 95.0704 110.13L97.5827 109.393C91.9917 120.602 89.5534 135.471 106.228 134.48C120.808 134.48 126.325 123.957 125.784 110.308ZM125.784 110.308C131.079 123.423 125.045 135.522 111.277 137.758C104.75 138.572 96.4497 138.953 91.9917 132.751C86.8688 124.237 91.3267 113.917 95.2182 105.937C99.8486 108.86 105.242 110.232 110.71 110.308C115.735 110.359 120.71 110.918 125.784 110.308Z" fill="#539DD6"/>
</svg>
