<svg width="1220" height="369" viewBox="0 0 1220 369" fill="none" xmlns="http://www.w3.org/2000/svg">
<rect x="1207.66" y="368.5" width="1207.16" height="350" transform="rotate(-180 1207.66 368.5)" stroke="#7283A9"/>
<rect x="1206.66" y="340.893" width="1194.13" height="294.786" transform="rotate(-180 1206.66 340.893)" stroke="#465169"/>
<rect x="1206.66" y="297.511" width="1166.05" height="243.517" transform="rotate(-180 1206.66 297.511)" stroke="#465169"/>
<rect x="1206.66" y="210.747" width="1147" height="133.09" transform="rotate(-180 1206.66 210.747)" stroke="#465169"/>
<rect x="1206.66" y="151.59" width="1129.96" height="10.8315" transform="rotate(-180 1206.66 151.59)" stroke="#465169"/>
<rect x="1207.66" y="309.343" width="1187.11" height="243.517" transform="rotate(-180 1207.66 309.343)" stroke="#7283A9"/>
<rect x="1207.66" y="250.185" width="1162.04" height="129.146" transform="rotate(-180 1207.66 250.185)" stroke="#7283A9"/>
<rect x="1207.66" y="202.86" width="1137.98" height="42.382" transform="rotate(-180 1207.66 202.86)" stroke="#7283A9"/>
<rect x="1219.5" y="350.5" width="1207.16" height="350" transform="rotate(-180 1219.5 350.5)" stroke="#7283A9"/>
<rect x="1218.5" y="322.893" width="1194.13" height="294.786" transform="rotate(-180 1218.5 322.893)" stroke="#465169"/>
<rect x="1218.5" y="279.511" width="1166.05" height="243.517" transform="rotate(-180 1218.5 279.511)" stroke="#465169"/>
<rect x="1218.5" y="192.747" width="1147" height="133.09" transform="rotate(-180 1218.5 192.747)" stroke="#465169"/>
<rect x="1218.5" y="133.59" width="1129.96" height="10.8315" transform="rotate(-180 1218.5 133.59)" stroke="#465169"/>
<rect x="1219.5" y="291.343" width="1187.11" height="243.517" transform="rotate(-180 1219.5 291.343)" stroke="#7283A9"/>
<rect x="1219.5" y="232.185" width="1162.04" height="129.146" transform="rotate(-180 1219.5 232.185)" stroke="#7283A9"/>
<rect x="1219.5" y="184.86" width="1137.98" height="42.382" transform="rotate(-180 1219.5 184.86)" stroke="#7283A9"/>
</svg>
