<svg width="1220" height="369" viewBox="0 0 1220 369" fill="none" xmlns="http://www.w3.org/2000/svg">
<rect x="12.3409" y="0.5" width="1207.16" height="350" stroke="#7283A9"/>
<rect x="13.3436" y="28.1067" width="1194.13" height="294.786" stroke="#465169"/>
<rect x="13.3436" y="71.4888" width="1166.05" height="243.517" stroke="#465169"/>
<rect x="13.3434" y="158.253" width="1147" height="133.09" stroke="#465169"/>
<rect x="13.3434" y="217.41" width="1129.96" height="10.8315" stroke="#465169"/>
<rect x="12.3409" y="59.6572" width="1187.11" height="243.517" stroke="#7283A9"/>
<rect x="12.3409" y="118.815" width="1162.04" height="129.146" stroke="#7283A9"/>
<rect x="12.3409" y="166.141" width="1137.98" height="42.382" stroke="#7283A9"/>
<rect x="0.500061" y="18.5" width="1207.16" height="350" stroke="#7283A9"/>
<rect x="1.50281" y="46.1067" width="1194.13" height="294.786" stroke="#465169"/>
<rect x="1.50275" y="89.4888" width="1166.05" height="243.517" stroke="#465169"/>
<rect x="1.50262" y="176.253" width="1147" height="133.09" stroke="#465169"/>
<rect x="1.50262" y="235.41" width="1129.96" height="10.8315" stroke="#465169"/>
<rect x="0.500061" y="77.6572" width="1187.11" height="243.517" stroke="#7283A9"/>
<rect x="0.500061" y="136.815" width="1162.04" height="129.146" stroke="#7283A9"/>
<rect x="0.500061" y="184.141" width="1137.98" height="42.382" stroke="#7283A9"/>
</svg>
