<svg width="105" height="46" viewBox="0 0 105 46" fill="none" xmlns="http://www.w3.org/2000/svg">
<rect x="0.5" y="0.5" width="104" height="43.7129" stroke="#A32634"/>
<rect x="0.587158" y="4.01678" width="102.867" height="36.6794" stroke="#DF2C2C"/>
<rect x="0.587158" y="9.54303" width="100.427" height="30.1483" stroke="#DF2C2C"/>
<rect x="0.587158" y="20.5957" width="98.7718" height="16.0813" stroke="#DF2C2C"/>
<rect x="0.463952" y="28.0084" width="97.5369" height="0.753588" stroke="#DF2C2C" stroke-width="0.753588"/>
<rect x="0.5" y="8.03589" width="102.257" height="30.1483" stroke="#A32634"/>
<rect x="0.5" y="15.5718" width="100.079" height="15.5789" stroke="#A32634"/>
<rect x="0.5" y="21.6005" width="97.9876" height="4.52632" stroke="#A32634"/>
<path d="M29.772 19.411L27.441 19.621L27.294 17.92L29.772 17.689V13.531H31.599V17.542L34.392 17.29L34.539 18.991L31.599 19.243V26.614L34.182 26.257L34.329 28L29.772 28.546V19.411ZM38.2824 19.39L41.8104 17.08L42.7974 18.592L39.3114 20.902L38.2824 19.39ZM36.2034 17.185L38.0304 17.122L38.4294 28.441L36.6024 28.504L36.2034 17.185ZM44.3396 17.794L52.7606 16.975L52.2356 23.569H47.7416V21.91H50.4716L50.7446 18.781L46.2716 19.243L46.8386 26.656L53.5586 25.606L53.6846 27.328L45.1586 28.567L44.3396 17.794ZM62.3843 26.551L56.4833 28.504L54.7613 22.687L59.8223 20.629L60.4313 22.162L56.8613 23.59L57.7013 26.278L62.0063 24.913L60.6833 19.012L55.3703 20.041L54.9713 18.382L62.1113 17.059L64.5893 28L62.8043 28.504L62.3843 26.551ZM67.7115 19.411L65.3805 19.621L65.2335 17.92L67.7115 17.689V13.531H69.5385V17.542L72.3315 17.29L72.4785 18.991L69.5385 19.243V26.614L72.1215 26.257L72.2685 28L67.7115 28.546V19.411ZM74.4789 12.985H77.0619L76.6209 24.241H74.9199L74.4789 12.985ZM74.5209 25.963H77.0409V28.483H74.5209V25.963Z" fill="#ADC4A3"/>
</svg>
